; NON-PLATED HOLES START AT T1
; THROUGH (PLATED) HOLES START AT T100
M48
INCH
T1C0.126000
T2C0.058000
T3C0.118110
T4C0.070000
T100C0.027559
T101C0.041361
T102C0.043307
T103C0.042000
T104C0.088356
T105C0.073000
T106C0.039370
T107C0.082677
T108C0.035000
T109C0.038000
T110C0.031497
T111C0.028000
T112C0.060020
T113C0.015748
T114C0.040000
T115C0.041333
%
T1
X027159Y027123
X005261Y027123
T2
X002003Y017554
X002003Y015648
T3
X030651Y001656
X001937Y034531
X030749Y034461
X002033Y001610
T4
X000805Y015533
X000805Y017679
T100
X010772Y025185
X032050Y024900
X010772Y023217
X030082Y024900
T101
X028742Y014658
X022631Y014658
X024742Y024835
T102
X025305Y017298
X017742Y011547
X012742Y011547
X027269Y023007
X015742Y011547
X025301Y023007
X007742Y011547
X002742Y011547
X005742Y011547
X000742Y011547
X004742Y011547
X006742Y011547
X010742Y011547
X014742Y011547
X016742Y011547
X001742Y011547
X013742Y011547
X003742Y011547
X011742Y011547
X019742Y011547
X008742Y011547
X026285Y023007
X027273Y017298
X009742Y011547
X018742Y011547
T103
X000808Y029377
X000808Y032357
T104
X021690Y011705
X025573Y011705
X031684Y011705
X025684Y027787
X021801Y027787
X027801Y011705
T105
X001886Y027122
X030576Y027128
T106
X013572Y033236
X017742Y021714
X013572Y031236
X015742Y021714
X013572Y035236
X012742Y021714
X007742Y021714
X005742Y021714
X002742Y021714
X013572Y032236
X004742Y021714
X000742Y021714
X006742Y021714
X014742Y021714
X010742Y021714
X016742Y021714
X013742Y021714
X001742Y021714
X011742Y021714
X003742Y021714
X008742Y021714
X019742Y021714
X013572Y030236
X018742Y021714
X009742Y021714
X013572Y034236
T107
X028470Y020054
X024100Y020054
T108
X012020Y002769
X024298Y029825
X014903Y005828
X018681Y005828
X023687Y005769
X031465Y002825
X016909Y005828
X028687Y005828
X019798Y005769
X001242Y003269
X005242Y005828
X022681Y003269
X026570Y003269
X013039Y023930
X030458Y003269
X027687Y002769
X028687Y003269
X023687Y002769
X003909Y005825
X009131Y003269
X020020Y030436
X026570Y005828
X017087Y024303
X013131Y003269
X014903Y003269
X012020Y005769
X027687Y005769
X020909Y003269
X015977Y025100
X005242Y003269
X024798Y003269
X001242Y005828
X019798Y002769
X009131Y005828
X028751Y027944
X016629Y028996
X015909Y002769
X013131Y005828
X003909Y002825
X020909Y005828
X018629Y028996
X016039Y023930
X010903Y005828
X030458Y005828
X028751Y024944
X008020Y005769
X012977Y025100
X015909Y005769
X031465Y005825
X021298Y029825
X017629Y028996
X018681Y003269
X003014Y003269
X020020Y033436
X007014Y003269
X003014Y005828
X008020Y002769
X007014Y005828
X016909Y003269
X022681Y005828
X024798Y005828
X010903Y003269
X020087Y024303
T109
X011742Y020103
X003742Y020103
X013742Y020103
X001742Y020103
X009742Y013107
X018742Y013107
X019742Y013107
X008742Y013107
X002742Y013107
X005742Y020103
X007742Y020103
X015742Y020103
X017742Y020103
X012742Y013107
X003906Y030088
X010742Y013107
X014742Y013107
X004906Y030088
X019742Y016603
X016742Y013107
X000742Y013107
X004742Y013107
X006742Y013107
X003742Y013107
X011742Y013107
X001742Y013107
X013742Y013107
X018742Y020103
X009742Y020103
X002906Y030088
X008742Y020103
X019742Y020103
X007742Y013107
X005742Y013107
X002742Y020103
X012742Y020103
X017742Y013107
X015742Y013107
X016742Y020103
X014742Y020103
X010742Y020103
X019742Y017603
X019742Y015603
X006742Y020103
X004742Y020103
X000742Y020103
T110
X026076Y007269
X010631Y007269
X005647Y007269
X021314Y007269
X018187Y007269
X029091Y007269
X013536Y007269
X006631Y007269
X017202Y007269
X022298Y007269
X009647Y007269
X030076Y007269
X014520Y007269
X001758Y007269
X002742Y007269
X025091Y007269
T111
X009247Y034993
X007242Y034991
X010242Y034991
X008242Y034991
T112
X019187Y031991
X031576Y030880
X018197Y032541
X015537Y030851
X027346Y032600
X021259Y030851
X028486Y028950
X024909Y031991
X030296Y032800
X029036Y029940
X017257Y035081
X021059Y033801
X023919Y032541
X015337Y033801
X022979Y035081
T113
X011742Y027621
X009457Y018039
X028483Y023658
T114
X001056Y023702
X001056Y025842
X001056Y024772
T115
X023742Y024835
X029742Y014658
X023631Y014658
X022742Y024835
X030742Y014658
X024631Y014658
T00
M30
