G04 MADE WITH FRITZING*
G04 WWW.FRITZING.ORG*
G04 DOUBLE SIDED*
G04 HOLES PLATED*
G04 CONTOUR ON CENTER OF CONTOUR VECTOR*
%ASAXBY*%
%FSLAX23Y23*%
%MOIN*%
%OFA0B0*%
%SFA1.0B1.0*%
%ADD10C,0.005000*%
%ADD10C,0.008*%
%LNCONTOUR*%
G90*
G70*
G54D10*
G54D10*
X375Y3622D02*
X376Y3622D01*
X377Y3622D01*
X378Y3622D01*
X379Y3622D01*
X380Y3622D01*
X381Y3622D01*
X382Y3622D01*
X383Y3622D01*
X384Y3622D01*
X385Y3622D01*
X386Y3622D01*
X387Y3622D01*
X388Y3622D01*
X389Y3622D01*
X390Y3622D01*
X391Y3622D01*
X392Y3622D01*
X393Y3622D01*
X394Y3622D01*
X395Y3622D01*
X396Y3622D01*
X397Y3622D01*
X398Y3622D01*
X399Y3622D01*
X400Y3622D01*
X401Y3622D01*
X402Y3622D01*
X403Y3622D01*
X404Y3622D01*
X405Y3622D01*
X406Y3622D01*
X407Y3622D01*
X408Y3622D01*
X409Y3622D01*
X410Y3622D01*
X411Y3622D01*
X412Y3622D01*
X413Y3622D01*
X414Y3622D01*
X415Y3622D01*
X416Y3622D01*
X417Y3622D01*
X418Y3622D01*
X419Y3622D01*
X420Y3622D01*
X421Y3622D01*
X422Y3622D01*
X423Y3622D01*
X424Y3622D01*
X425Y3622D01*
X426Y3622D01*
X427Y3622D01*
X428Y3622D01*
X429Y3622D01*
X430Y3622D01*
X431Y3622D01*
X432Y3622D01*
X433Y3622D01*
X434Y3622D01*
X435Y3622D01*
X436Y3622D01*
X437Y3622D01*
X438Y3622D01*
X439Y3622D01*
X440Y3622D01*
X441Y3622D01*
X442Y3622D01*
X443Y3622D01*
X444Y3622D01*
X445Y3622D01*
X446Y3622D01*
X447Y3622D01*
X448Y3622D01*
X449Y3622D01*
X450Y3622D01*
X451Y3622D01*
X452Y3622D01*
X453Y3622D01*
X454Y3622D01*
X455Y3622D01*
X456Y3622D01*
X457Y3622D01*
X458Y3622D01*
X459Y3622D01*
X460Y3622D01*
X461Y3622D01*
X462Y3622D01*
X463Y3622D01*
X464Y3622D01*
X465Y3622D01*
X466Y3622D01*
X467Y3622D01*
X468Y3622D01*
X469Y3622D01*
X470Y3622D01*
X471Y3622D01*
X472Y3622D01*
X473Y3622D01*
X474Y3622D01*
X475Y3622D01*
X476Y3622D01*
X477Y3622D01*
X478Y3622D01*
X479Y3622D01*
X480Y3622D01*
X481Y3622D01*
X482Y3622D01*
X483Y3622D01*
X484Y3622D01*
X485Y3622D01*
X486Y3622D01*
X487Y3622D01*
X488Y3622D01*
X489Y3622D01*
X490Y3622D01*
X491Y3622D01*
X492Y3622D01*
X493Y3622D01*
X494Y3622D01*
X495Y3622D01*
X496Y3622D01*
X497Y3622D01*
X498Y3622D01*
X499Y3622D01*
X500Y3622D01*
X501Y3622D01*
X502Y3622D01*
X503Y3622D01*
X504Y3622D01*
X505Y3622D01*
X506Y3622D01*
X507Y3622D01*
X508Y3622D01*
X509Y3622D01*
X510Y3622D01*
X511Y3622D01*
X512Y3622D01*
X513Y3622D01*
X514Y3622D01*
X515Y3622D01*
X516Y3622D01*
X517Y3622D01*
X518Y3622D01*
X519Y3622D01*
X520Y3622D01*
X521Y3622D01*
X522Y3622D01*
X523Y3622D01*
X524Y3622D01*
X525Y3622D01*
X526Y3622D01*
X527Y3622D01*
X528Y3622D01*
X529Y3622D01*
X530Y3622D01*
X531Y3622D01*
X532Y3622D01*
X533Y3622D01*
X534Y3622D01*
X535Y3622D01*
X536Y3622D01*
X537Y3622D01*
X538Y3622D01*
X539Y3622D01*
X540Y3622D01*
X541Y3622D01*
X542Y3622D01*
X543Y3622D01*
X544Y3622D01*
X545Y3622D01*
X546Y3622D01*
X547Y3622D01*
X548Y3622D01*
X549Y3622D01*
X550Y3622D01*
X551Y3622D01*
X552Y3622D01*
X553Y3622D01*
X554Y3622D01*
X555Y3622D01*
X556Y3622D01*
X557Y3622D01*
X558Y3622D01*
X559Y3622D01*
X560Y3622D01*
X561Y3622D01*
X562Y3622D01*
X563Y3622D01*
X564Y3622D01*
X565Y3622D01*
X566Y3622D01*
X567Y3622D01*
X568Y3622D01*
X569Y3622D01*
X570Y3622D01*
X571Y3622D01*
X572Y3622D01*
X573Y3622D01*
X574Y3622D01*
X575Y3622D01*
X576Y3622D01*
X577Y3622D01*
X578Y3622D01*
X579Y3622D01*
X580Y3622D01*
X581Y3622D01*
X582Y3622D01*
X583Y3622D01*
X584Y3622D01*
X585Y3622D01*
X586Y3622D01*
X587Y3622D01*
X588Y3622D01*
X589Y3622D01*
X590Y3622D01*
X591Y3622D01*
X592Y3622D01*
X593Y3622D01*
X594Y3622D01*
X595Y3622D01*
X596Y3622D01*
X597Y3622D01*
X598Y3622D01*
X599Y3622D01*
X600Y3622D01*
X601Y3622D01*
X602Y3622D01*
X603Y3622D01*
X604Y3622D01*
X605Y3622D01*
X606Y3622D01*
X607Y3622D01*
X608Y3622D01*
X609Y3622D01*
X610Y3622D01*
X611Y3622D01*
X612Y3622D01*
X613Y3622D01*
X614Y3622D01*
X615Y3622D01*
X616Y3622D01*
X617Y3622D01*
X618Y3622D01*
X619Y3622D01*
X620Y3622D01*
X621Y3622D01*
X622Y3622D01*
X623Y3622D01*
X624Y3622D01*
X625Y3622D01*
X626Y3622D01*
X627Y3622D01*
X628Y3622D01*
X629Y3622D01*
X630Y3622D01*
X631Y3622D01*
X632Y3622D01*
X633Y3622D01*
X634Y3622D01*
X635Y3622D01*
X636Y3622D01*
X637Y3622D01*
X638Y3622D01*
X639Y3622D01*
X640Y3622D01*
X641Y3622D01*
X642Y3622D01*
X643Y3622D01*
X644Y3622D01*
X645Y3622D01*
X646Y3622D01*
X647Y3622D01*
X648Y3622D01*
X649Y3622D01*
X650Y3622D01*
X651Y3622D01*
X652Y3622D01*
X653Y3622D01*
X654Y3622D01*
X655Y3622D01*
X656Y3622D01*
X657Y3622D01*
X658Y3622D01*
X659Y3622D01*
X660Y3622D01*
X661Y3622D01*
X662Y3622D01*
X663Y3622D01*
X664Y3622D01*
X665Y3622D01*
X666Y3622D01*
X667Y3622D01*
X668Y3622D01*
X669Y3622D01*
X670Y3622D01*
X671Y3622D01*
X672Y3622D01*
X673Y3622D01*
X674Y3622D01*
X675Y3622D01*
X676Y3622D01*
X677Y3622D01*
X678Y3622D01*
X679Y3622D01*
X680Y3622D01*
X681Y3622D01*
X682Y3622D01*
X683Y3622D01*
X684Y3622D01*
X685Y3622D01*
X686Y3622D01*
X687Y3622D01*
X688Y3622D01*
X689Y3622D01*
X690Y3622D01*
X691Y3622D01*
X692Y3622D01*
X693Y3622D01*
X694Y3622D01*
X695Y3622D01*
X696Y3622D01*
X697Y3622D01*
X698Y3622D01*
X699Y3622D01*
X700Y3622D01*
X701Y3622D01*
X702Y3622D01*
X703Y3622D01*
X704Y3622D01*
X705Y3622D01*
X706Y3622D01*
X707Y3622D01*
X708Y3622D01*
X709Y3622D01*
X710Y3622D01*
X711Y3622D01*
X712Y3622D01*
X713Y3622D01*
X714Y3622D01*
X715Y3622D01*
X716Y3622D01*
X717Y3622D01*
X718Y3622D01*
X719Y3622D01*
X720Y3622D01*
X721Y3622D01*
X722Y3622D01*
X723Y3622D01*
X724Y3622D01*
X725Y3622D01*
X726Y3622D01*
X727Y3622D01*
X728Y3622D01*
X729Y3622D01*
X730Y3622D01*
X731Y3622D01*
X732Y3622D01*
X733Y3622D01*
X734Y3622D01*
X735Y3622D01*
X736Y3622D01*
X737Y3622D01*
X738Y3622D01*
X739Y3622D01*
X740Y3622D01*
X741Y3622D01*
X742Y3622D01*
X743Y3622D01*
X744Y3622D01*
X745Y3622D01*
X746Y3622D01*
X747Y3622D01*
X748Y3622D01*
X749Y3622D01*
X750Y3622D01*
X751Y3622D01*
X752Y3622D01*
X753Y3622D01*
X754Y3622D01*
X755Y3622D01*
X756Y3622D01*
X757Y3622D01*
X758Y3622D01*
X759Y3622D01*
X760Y3622D01*
X761Y3622D01*
X762Y3622D01*
X763Y3622D01*
X764Y3622D01*
X765Y3622D01*
X766Y3622D01*
X767Y3622D01*
X768Y3622D01*
X769Y3622D01*
X770Y3622D01*
X771Y3622D01*
X772Y3622D01*
X773Y3622D01*
X774Y3622D01*
X775Y3622D01*
X776Y3622D01*
X777Y3622D01*
X778Y3622D01*
X779Y3622D01*
X780Y3622D01*
X781Y3622D01*
X782Y3622D01*
X783Y3622D01*
X784Y3622D01*
X785Y3622D01*
X786Y3622D01*
X787Y3622D01*
X788Y3622D01*
X789Y3622D01*
X790Y3622D01*
X791Y3622D01*
X792Y3622D01*
X793Y3622D01*
X794Y3622D01*
X795Y3622D01*
X796Y3622D01*
X797Y3622D01*
X798Y3622D01*
X799Y3622D01*
X800Y3622D01*
X801Y3622D01*
X802Y3622D01*
X803Y3622D01*
X804Y3622D01*
X805Y3622D01*
X806Y3622D01*
X807Y3622D01*
X808Y3622D01*
X809Y3622D01*
X810Y3622D01*
X811Y3622D01*
X812Y3622D01*
X813Y3622D01*
X814Y3622D01*
X815Y3622D01*
X816Y3622D01*
X817Y3622D01*
X818Y3622D01*
X819Y3622D01*
X820Y3622D01*
X821Y3622D01*
X822Y3622D01*
X823Y3622D01*
X824Y3622D01*
X825Y3622D01*
X826Y3622D01*
X827Y3622D01*
X828Y3622D01*
X829Y3622D01*
X830Y3622D01*
X831Y3622D01*
X832Y3622D01*
X833Y3622D01*
X834Y3622D01*
X835Y3622D01*
X836Y3622D01*
X837Y3622D01*
X838Y3622D01*
X839Y3622D01*
X840Y3622D01*
X841Y3622D01*
X842Y3622D01*
X843Y3622D01*
X844Y3622D01*
X845Y3622D01*
X846Y3622D01*
X847Y3622D01*
X848Y3622D01*
X849Y3622D01*
X850Y3622D01*
X851Y3622D01*
X852Y3622D01*
X853Y3622D01*
X854Y3622D01*
X855Y3622D01*
X856Y3622D01*
X857Y3622D01*
X858Y3622D01*
X859Y3622D01*
X860Y3622D01*
X861Y3622D01*
X862Y3622D01*
X863Y3622D01*
X864Y3622D01*
X865Y3622D01*
X866Y3622D01*
X867Y3622D01*
X868Y3622D01*
X869Y3622D01*
X870Y3622D01*
X871Y3622D01*
X872Y3622D01*
X873Y3622D01*
X874Y3622D01*
X875Y3622D01*
X876Y3622D01*
X877Y3622D01*
X878Y3622D01*
X879Y3622D01*
X880Y3622D01*
X881Y3622D01*
X882Y3622D01*
X883Y3622D01*
X884Y3622D01*
X885Y3622D01*
X886Y3622D01*
X887Y3622D01*
X888Y3622D01*
X889Y3622D01*
X890Y3622D01*
X891Y3622D01*
X892Y3622D01*
X893Y3622D01*
X894Y3622D01*
X895Y3622D01*
X896Y3622D01*
X897Y3622D01*
X898Y3622D01*
X899Y3622D01*
X900Y3622D01*
X901Y3622D01*
X902Y3622D01*
X903Y3622D01*
X904Y3622D01*
X905Y3622D01*
X906Y3622D01*
X907Y3622D01*
X908Y3622D01*
X909Y3622D01*
X910Y3622D01*
X911Y3622D01*
X912Y3622D01*
X913Y3622D01*
X914Y3622D01*
X915Y3622D01*
X916Y3622D01*
X917Y3622D01*
X918Y3622D01*
X919Y3622D01*
X920Y3622D01*
X921Y3622D01*
X922Y3622D01*
X923Y3622D01*
X924Y3622D01*
X925Y3622D01*
X926Y3622D01*
X927Y3622D01*
X928Y3622D01*
X929Y3622D01*
X930Y3622D01*
X931Y3622D01*
X932Y3622D01*
X933Y3622D01*
X934Y3622D01*
X935Y3622D01*
X936Y3622D01*
X937Y3622D01*
X938Y3622D01*
X939Y3622D01*
X940Y3622D01*
X941Y3622D01*
X942Y3622D01*
X943Y3622D01*
X944Y3622D01*
X945Y3622D01*
X946Y3622D01*
X947Y3622D01*
X948Y3622D01*
X949Y3622D01*
X950Y3622D01*
X951Y3622D01*
X952Y3622D01*
X953Y3622D01*
X954Y3622D01*
X955Y3622D01*
X956Y3622D01*
X957Y3622D01*
X958Y3622D01*
X959Y3622D01*
X960Y3622D01*
X961Y3622D01*
X962Y3622D01*
X963Y3622D01*
X964Y3622D01*
X965Y3622D01*
X966Y3622D01*
X967Y3622D01*
X968Y3622D01*
X969Y3622D01*
X970Y3622D01*
X971Y3622D01*
X972Y3622D01*
X973Y3622D01*
X974Y3622D01*
X975Y3622D01*
X976Y3622D01*
X977Y3622D01*
X978Y3622D01*
X979Y3622D01*
X980Y3622D01*
X981Y3622D01*
X982Y3622D01*
X983Y3622D01*
X984Y3622D01*
X985Y3622D01*
X986Y3622D01*
X987Y3622D01*
X988Y3622D01*
X989Y3622D01*
X990Y3622D01*
X991Y3622D01*
X992Y3622D01*
X993Y3622D01*
X994Y3622D01*
X995Y3622D01*
X996Y3622D01*
X997Y3622D01*
X998Y3622D01*
X999Y3622D01*
X1000Y3622D01*
X1001Y3622D01*
X1002Y3622D01*
X1003Y3622D01*
X1004Y3622D01*
X1005Y3622D01*
X1006Y3622D01*
X1007Y3622D01*
X1008Y3622D01*
X1009Y3622D01*
X1010Y3622D01*
X1011Y3622D01*
X1012Y3622D01*
X1013Y3622D01*
X1014Y3622D01*
X1015Y3622D01*
X1016Y3622D01*
X1017Y3622D01*
X1018Y3622D01*
X1019Y3622D01*
X1020Y3622D01*
X1021Y3622D01*
X1022Y3622D01*
X1023Y3622D01*
X1024Y3622D01*
X1025Y3622D01*
X1026Y3622D01*
X1027Y3622D01*
X1028Y3622D01*
X1029Y3622D01*
X1030Y3622D01*
X1031Y3622D01*
X1032Y3622D01*
X1033Y3622D01*
X1034Y3622D01*
X1035Y3622D01*
X1036Y3622D01*
X1037Y3622D01*
X1038Y3622D01*
X1039Y3622D01*
X1040Y3622D01*
X1041Y3622D01*
X1042Y3622D01*
X1043Y3622D01*
X1044Y3622D01*
X1045Y3622D01*
X1046Y3622D01*
X1047Y3622D01*
X1048Y3622D01*
X1049Y3622D01*
X1050Y3622D01*
X1051Y3622D01*
X1052Y3622D01*
X1053Y3622D01*
X1054Y3622D01*
X1055Y3622D01*
X1056Y3622D01*
X1057Y3622D01*
X1058Y3622D01*
X1059Y3622D01*
X1060Y3622D01*
X1061Y3622D01*
X1062Y3622D01*
X1063Y3622D01*
X1064Y3622D01*
X1065Y3622D01*
X1066Y3622D01*
X1067Y3622D01*
X1068Y3622D01*
X1069Y3622D01*
X1070Y3622D01*
X1071Y3622D01*
X1072Y3622D01*
X1073Y3622D01*
X1074Y3622D01*
X1075Y3622D01*
X1076Y3622D01*
X1077Y3622D01*
X1078Y3622D01*
X1079Y3622D01*
X1080Y3622D01*
X1081Y3622D01*
X1082Y3622D01*
X1083Y3622D01*
X1084Y3622D01*
X1085Y3622D01*
X1086Y3622D01*
X1087Y3622D01*
X1088Y3622D01*
X1089Y3622D01*
X1090Y3622D01*
X1091Y3622D01*
X1092Y3622D01*
X1093Y3622D01*
X1094Y3622D01*
X1095Y3622D01*
X1096Y3622D01*
X1097Y3622D01*
X1098Y3622D01*
X1099Y3622D01*
X1100Y3622D01*
X1101Y3622D01*
X1102Y3622D01*
X1103Y3622D01*
X1104Y3622D01*
X1105Y3622D01*
X1106Y3622D01*
X1107Y3622D01*
X1108Y3622D01*
X1109Y3622D01*
X1110Y3622D01*
X1111Y3622D01*
X1112Y3622D01*
X1113Y3622D01*
X1114Y3622D01*
X1115Y3622D01*
X1116Y3622D01*
X1117Y3622D01*
X1118Y3622D01*
X1119Y3622D01*
X1120Y3622D01*
X1121Y3622D01*
X1122Y3622D01*
X1123Y3622D01*
X1124Y3622D01*
X1125Y3622D01*
X1126Y3622D01*
X1127Y3622D01*
X1128Y3622D01*
X1129Y3622D01*
X1130Y3622D01*
X1131Y3622D01*
X1132Y3622D01*
X1133Y3622D01*
X1134Y3622D01*
X1135Y3622D01*
X1136Y3622D01*
X1137Y3622D01*
X1138Y3622D01*
X1139Y3622D01*
X1140Y3622D01*
X1141Y3622D01*
X1142Y3622D01*
X1143Y3622D01*
X1144Y3622D01*
X1145Y3622D01*
X1146Y3622D01*
X1147Y3622D01*
X1148Y3622D01*
X1149Y3622D01*
X1150Y3622D01*
X1151Y3622D01*
X1152Y3622D01*
X1153Y3622D01*
X1154Y3622D01*
X1155Y3622D01*
X1156Y3622D01*
X1157Y3622D01*
X1158Y3622D01*
X1159Y3622D01*
X1160Y3622D01*
X1161Y3622D01*
X1162Y3622D01*
X1163Y3622D01*
X1164Y3622D01*
X1165Y3622D01*
X1166Y3622D01*
X1167Y3622D01*
X1168Y3622D01*
X1169Y3622D01*
X1170Y3622D01*
X1171Y3622D01*
X1172Y3622D01*
X1173Y3622D01*
X1174Y3622D01*
X1175Y3622D01*
X1176Y3622D01*
X1177Y3622D01*
X1178Y3622D01*
X1179Y3622D01*
X1180Y3622D01*
X1181Y3622D01*
X1182Y3622D01*
X1183Y3622D01*
X1184Y3622D01*
X1185Y3622D01*
X1186Y3622D01*
X1187Y3622D01*
X1188Y3622D01*
X1189Y3622D01*
X1190Y3622D01*
X1191Y3622D01*
X1192Y3622D01*
X1193Y3622D01*
X1194Y3622D01*
X1195Y3622D01*
X1196Y3622D01*
X1197Y3622D01*
X1198Y3622D01*
X1199Y3622D01*
X1200Y3622D01*
X1201Y3622D01*
X1202Y3622D01*
X1203Y3622D01*
X1204Y3622D01*
X1205Y3622D01*
X1206Y3622D01*
X1207Y3622D01*
X1208Y3622D01*
X1209Y3622D01*
X1210Y3622D01*
X1211Y3622D01*
X1212Y3622D01*
X1213Y3622D01*
X1214Y3622D01*
X1215Y3622D01*
X1216Y3622D01*
X1217Y3622D01*
X1218Y3622D01*
X1219Y3622D01*
X1220Y3622D01*
X1221Y3622D01*
X1222Y3622D01*
X1223Y3622D01*
X1224Y3622D01*
X1225Y3622D01*
X1226Y3622D01*
X1227Y3622D01*
X1228Y3622D01*
X1229Y3622D01*
X1230Y3622D01*
X1231Y3622D01*
X1232Y3622D01*
X1233Y3622D01*
X1234Y3622D01*
X1235Y3622D01*
X1236Y3622D01*
X1237Y3622D01*
X1238Y3622D01*
X1239Y3622D01*
X1240Y3622D01*
X1241Y3622D01*
X1242Y3622D01*
X1243Y3622D01*
X1244Y3622D01*
X1245Y3622D01*
X1246Y3622D01*
X1247Y3622D01*
X1248Y3622D01*
X1249Y3622D01*
X1250Y3622D01*
X1251Y3622D01*
X1252Y3622D01*
X1253Y3622D01*
X1254Y3622D01*
X1255Y3622D01*
X1256Y3622D01*
X1257Y3622D01*
X1258Y3622D01*
X1259Y3622D01*
X1260Y3622D01*
X1261Y3622D01*
X1262Y3622D01*
X1263Y3622D01*
X1264Y3622D01*
X1265Y3622D01*
X1266Y3622D01*
X1267Y3622D01*
X1268Y3622D01*
X1269Y3622D01*
X1270Y3622D01*
X1271Y3622D01*
X1272Y3622D01*
X1273Y3622D01*
X1274Y3622D01*
X1275Y3622D01*
X1276Y3622D01*
X1277Y3622D01*
X1278Y3622D01*
X1279Y3622D01*
X1280Y3622D01*
X1281Y3622D01*
X1282Y3622D01*
X1283Y3622D01*
X1284Y3622D01*
X1285Y3622D01*
X1286Y3622D01*
X1287Y3622D01*
X1288Y3622D01*
X1289Y3622D01*
X1290Y3622D01*
X1291Y3622D01*
X1292Y3622D01*
X1293Y3622D01*
X1294Y3622D01*
X1295Y3622D01*
X1296Y3622D01*
X1297Y3622D01*
X1298Y3622D01*
X1299Y3622D01*
X1300Y3622D01*
X1301Y3622D01*
X1302Y3622D01*
X1303Y3622D01*
X1304Y3622D01*
X1305Y3622D01*
X1306Y3622D01*
X1307Y3622D01*
X1308Y3622D01*
X1309Y3622D01*
X1310Y3622D01*
X1311Y3622D01*
X1312Y3622D01*
X1313Y3622D01*
X1314Y3622D01*
X1315Y3622D01*
X1316Y3622D01*
X1317Y3622D01*
X1318Y3622D01*
X1319Y3622D01*
X1320Y3622D01*
X1321Y3622D01*
X1322Y3622D01*
X1323Y3622D01*
X1324Y3622D01*
X1325Y3622D01*
X1326Y3622D01*
X1327Y3622D01*
X1328Y3622D01*
X1329Y3622D01*
X1330Y3622D01*
X1331Y3622D01*
X1332Y3622D01*
X1333Y3622D01*
X1334Y3622D01*
X1335Y3622D01*
X1336Y3622D01*
X1337Y3622D01*
X1338Y3622D01*
X1339Y3622D01*
X1340Y3622D01*
X1341Y3622D01*
X1342Y3622D01*
X1343Y3622D01*
X1344Y3622D01*
X1345Y3622D01*
X1346Y3622D01*
X1347Y3622D01*
X1348Y3622D01*
X1349Y3622D01*
X1350Y3622D01*
X1351Y3622D01*
X1352Y3622D01*
X1353Y3622D01*
X1354Y3622D01*
X1355Y3622D01*
X1356Y3622D01*
X1357Y3622D01*
X1358Y3622D01*
X1359Y3622D01*
X1360Y3622D01*
X1361Y3622D01*
X1362Y3622D01*
X1363Y3622D01*
X1364Y3622D01*
X1365Y3622D01*
X1366Y3622D01*
X1367Y3622D01*
X1368Y3622D01*
X1369Y3622D01*
X1370Y3622D01*
X1371Y3622D01*
X1372Y3622D01*
X1373Y3622D01*
X1374Y3622D01*
X1375Y3622D01*
X1376Y3622D01*
X1377Y3622D01*
X1378Y3622D01*
X1379Y3622D01*
X1380Y3622D01*
X1381Y3622D01*
X1382Y3622D01*
X1383Y3622D01*
X1384Y3622D01*
X1385Y3622D01*
X1386Y3622D01*
X1387Y3622D01*
X1388Y3622D01*
X1389Y3622D01*
X1390Y3622D01*
X1391Y3622D01*
X1392Y3622D01*
X1393Y3622D01*
X1394Y3622D01*
X1395Y3622D01*
X1396Y3622D01*
X1397Y3622D01*
X1398Y3622D01*
X1399Y3622D01*
X1400Y3622D01*
X1401Y3622D01*
X1402Y3622D01*
X1403Y3622D01*
X1404Y3622D01*
X1405Y3622D01*
X1406Y3622D01*
X1407Y3622D01*
X1408Y3622D01*
X1409Y3622D01*
X1410Y3622D01*
X1411Y3622D01*
X1412Y3622D01*
X1413Y3622D01*
X1414Y3622D01*
X1415Y3622D01*
X1416Y3622D01*
X1417Y3622D01*
X1418Y3622D01*
X1419Y3622D01*
X1420Y3622D01*
X1421Y3622D01*
X1422Y3622D01*
X1423Y3622D01*
X1424Y3622D01*
X1425Y3622D01*
X1426Y3622D01*
X1427Y3622D01*
X1428Y3622D01*
X1429Y3622D01*
X1430Y3622D01*
X1431Y3622D01*
X1432Y3622D01*
X1433Y3622D01*
X1434Y3622D01*
X1435Y3622D01*
X1436Y3622D01*
X1437Y3622D01*
X1438Y3622D01*
X1439Y3622D01*
X1440Y3622D01*
X1441Y3622D01*
X1442Y3622D01*
X1443Y3622D01*
X1444Y3622D01*
X1445Y3622D01*
X1446Y3622D01*
X1447Y3622D01*
X1448Y3622D01*
X1449Y3622D01*
X1450Y3622D01*
X1451Y3622D01*
X1452Y3622D01*
X1453Y3622D01*
X1454Y3622D01*
X1455Y3622D01*
X1456Y3622D01*
X1457Y3622D01*
X1458Y3622D01*
X1459Y3622D01*
X1460Y3622D01*
X1461Y3622D01*
X1462Y3622D01*
X1463Y3622D01*
X1464Y3622D01*
X1465Y3622D01*
X1466Y3622D01*
X1467Y3622D01*
X1468Y3622D01*
X1469Y3622D01*
X1470Y3622D01*
X1471Y3622D01*
X1472Y3622D01*
X1473Y3622D01*
X1474Y3622D01*
X1475Y3622D01*
X1476Y3622D01*
X1477Y3622D01*
X1478Y3622D01*
X1479Y3622D01*
X1480Y3622D01*
X1481Y3622D01*
X1482Y3622D01*
X1483Y3622D01*
X1484Y3622D01*
X1485Y3622D01*
X1486Y3622D01*
X1487Y3622D01*
X1488Y3622D01*
X1489Y3622D01*
X1490Y3622D01*
X1491Y3622D01*
X1492Y3622D01*
X1493Y3622D01*
X1494Y3622D01*
X1495Y3622D01*
X1496Y3622D01*
X1497Y3622D01*
X1498Y3622D01*
X1499Y3622D01*
X1500Y3622D01*
X1501Y3622D01*
X1502Y3622D01*
X1503Y3622D01*
X1504Y3622D01*
X1505Y3622D01*
X1506Y3622D01*
X1507Y3622D01*
X1508Y3622D01*
X1509Y3622D01*
X1510Y3622D01*
X1511Y3622D01*
X1512Y3622D01*
X1513Y3622D01*
X1514Y3622D01*
X1515Y3622D01*
X1516Y3622D01*
X1517Y3622D01*
X1518Y3622D01*
X1519Y3622D01*
X1520Y3622D01*
X1521Y3622D01*
X1522Y3622D01*
X1523Y3622D01*
X1524Y3622D01*
X1525Y3622D01*
X1526Y3622D01*
X1527Y3622D01*
X1528Y3622D01*
X1529Y3622D01*
X1530Y3622D01*
X1531Y3622D01*
X1532Y3622D01*
X1533Y3622D01*
X1534Y3622D01*
X1535Y3622D01*
X1536Y3622D01*
X1537Y3622D01*
X1538Y3622D01*
X1539Y3622D01*
X1540Y3622D01*
X1541Y3622D01*
X1542Y3622D01*
X1543Y3622D01*
X1544Y3622D01*
X1545Y3622D01*
X1546Y3622D01*
X1547Y3622D01*
X1548Y3622D01*
X1549Y3622D01*
X1550Y3622D01*
X1551Y3622D01*
X1552Y3622D01*
X1553Y3622D01*
X1554Y3622D01*
X1555Y3622D01*
X1556Y3622D01*
X1557Y3622D01*
X1558Y3622D01*
X1559Y3622D01*
X1560Y3622D01*
X1561Y3622D01*
X1562Y3622D01*
X1563Y3622D01*
X1564Y3622D01*
X1565Y3622D01*
X1566Y3622D01*
X1567Y3622D01*
X1568Y3622D01*
X1569Y3622D01*
X1570Y3622D01*
X1571Y3622D01*
X1572Y3622D01*
X1573Y3622D01*
X1574Y3622D01*
X1575Y3622D01*
X1576Y3622D01*
X1577Y3622D01*
X1578Y3622D01*
X1579Y3622D01*
X1580Y3622D01*
X1581Y3622D01*
X1582Y3622D01*
X1583Y3622D01*
X1584Y3622D01*
X1585Y3622D01*
X1586Y3622D01*
X1587Y3622D01*
X1588Y3622D01*
X1589Y3622D01*
X1590Y3622D01*
X1591Y3622D01*
X1592Y3622D01*
X1593Y3622D01*
X1594Y3622D01*
X1595Y3622D01*
X1596Y3622D01*
X1597Y3622D01*
X1598Y3622D01*
X1599Y3622D01*
X1600Y3622D01*
X1601Y3622D01*
X1602Y3622D01*
X1603Y3622D01*
X1604Y3622D01*
X1605Y3622D01*
X1606Y3622D01*
X1607Y3622D01*
X1608Y3622D01*
X1609Y3622D01*
X1610Y3622D01*
X1611Y3622D01*
X1612Y3622D01*
X1613Y3622D01*
X1614Y3622D01*
X1615Y3622D01*
X1616Y3622D01*
X1617Y3622D01*
X1618Y3622D01*
X1619Y3622D01*
X1620Y3622D01*
X1621Y3622D01*
X1622Y3622D01*
X1623Y3622D01*
X1624Y3622D01*
X1625Y3622D01*
X1626Y3622D01*
X1627Y3622D01*
X1628Y3622D01*
X1629Y3622D01*
X1630Y3622D01*
X1631Y3622D01*
X1632Y3622D01*
X1633Y3622D01*
X1634Y3622D01*
X1635Y3622D01*
X1636Y3622D01*
X1637Y3622D01*
X1638Y3622D01*
X1639Y3622D01*
X1640Y3622D01*
X1641Y3622D01*
X1642Y3622D01*
X1643Y3622D01*
X1644Y3622D01*
X1645Y3622D01*
X1646Y3622D01*
X1647Y3622D01*
X1648Y3622D01*
X1649Y3622D01*
X1650Y3622D01*
X1651Y3622D01*
X1652Y3622D01*
X1653Y3622D01*
X1654Y3622D01*
X1655Y3622D01*
X1656Y3622D01*
X1657Y3622D01*
X1658Y3622D01*
X1659Y3622D01*
X1660Y3622D01*
X1661Y3622D01*
X1662Y3622D01*
X1663Y3622D01*
X1664Y3622D01*
X1665Y3622D01*
X1666Y3622D01*
X1667Y3622D01*
X1668Y3622D01*
X1669Y3622D01*
X1670Y3622D01*
X1671Y3622D01*
X1672Y3622D01*
X1673Y3622D01*
X1674Y3622D01*
X1675Y3622D01*
X1676Y3622D01*
X1677Y3622D01*
X1678Y3622D01*
X1679Y3622D01*
X1680Y3622D01*
X1681Y3622D01*
X1682Y3622D01*
X1683Y3622D01*
X1684Y3622D01*
X1685Y3622D01*
X1686Y3622D01*
X1687Y3622D01*
X1688Y3622D01*
X1689Y3622D01*
X1690Y3622D01*
X1691Y3622D01*
X1692Y3622D01*
X1693Y3622D01*
X1694Y3622D01*
X1695Y3622D01*
X1696Y3622D01*
X1697Y3622D01*
X1698Y3622D01*
X1699Y3622D01*
X1700Y3622D01*
X1701Y3622D01*
X1702Y3622D01*
X1703Y3622D01*
X1704Y3622D01*
X1705Y3622D01*
X1706Y3622D01*
X1707Y3622D01*
X1708Y3622D01*
X1709Y3622D01*
X1710Y3622D01*
X1711Y3622D01*
X1712Y3622D01*
X1713Y3622D01*
X1714Y3622D01*
X1715Y3622D01*
X1716Y3622D01*
X1717Y3622D01*
X1718Y3622D01*
X1719Y3622D01*
X1720Y3622D01*
X1721Y3622D01*
X1722Y3622D01*
X1723Y3622D01*
X1724Y3622D01*
X1725Y3622D01*
X1726Y3622D01*
X1727Y3622D01*
X1728Y3622D01*
X1729Y3622D01*
X1730Y3622D01*
X1731Y3622D01*
X1732Y3622D01*
X1733Y3622D01*
X1734Y3622D01*
X1735Y3622D01*
X1736Y3622D01*
X1737Y3622D01*
X1738Y3622D01*
X1739Y3622D01*
X1740Y3622D01*
X1741Y3622D01*
X1742Y3622D01*
X1743Y3622D01*
X1744Y3622D01*
X1745Y3622D01*
X1746Y3622D01*
X1747Y3622D01*
X1748Y3622D01*
X1749Y3622D01*
X1750Y3622D01*
X1751Y3622D01*
X1752Y3622D01*
X1753Y3622D01*
X1754Y3622D01*
X1755Y3622D01*
X1756Y3622D01*
X1757Y3622D01*
X1758Y3622D01*
X1759Y3622D01*
X1760Y3622D01*
X1761Y3622D01*
X1762Y3622D01*
X1763Y3622D01*
X1764Y3622D01*
X1765Y3622D01*
X1766Y3622D01*
X1767Y3622D01*
X1768Y3622D01*
X1769Y3622D01*
X1770Y3622D01*
X1771Y3622D01*
X1772Y3622D01*
X1773Y3622D01*
X1774Y3622D01*
X1775Y3622D01*
X1776Y3622D01*
X1777Y3622D01*
X1778Y3622D01*
X1779Y3622D01*
X1780Y3622D01*
X1781Y3622D01*
X1782Y3622D01*
X1783Y3622D01*
X1784Y3622D01*
X1785Y3622D01*
X1786Y3622D01*
X1787Y3622D01*
X1788Y3622D01*
X1789Y3622D01*
X1790Y3622D01*
X1791Y3622D01*
X1792Y3622D01*
X1793Y3622D01*
X1794Y3622D01*
X1795Y3622D01*
X1796Y3622D01*
X1797Y3622D01*
X1798Y3622D01*
X1799Y3622D01*
X1800Y3622D01*
X1801Y3622D01*
X1802Y3622D01*
X1803Y3622D01*
X1804Y3622D01*
X1805Y3622D01*
X1806Y3622D01*
X1807Y3622D01*
X1808Y3622D01*
X1809Y3622D01*
X1810Y3622D01*
X1811Y3622D01*
X1812Y3622D01*
X1813Y3622D01*
X1814Y3622D01*
X1815Y3622D01*
X1816Y3622D01*
X1817Y3622D01*
X1818Y3622D01*
X1819Y3622D01*
X1820Y3622D01*
X1821Y3622D01*
X1822Y3622D01*
X1823Y3622D01*
X1824Y3622D01*
X1825Y3622D01*
X1826Y3622D01*
X1827Y3622D01*
X1828Y3622D01*
X1829Y3622D01*
X1830Y3622D01*
X1831Y3622D01*
X1832Y3622D01*
X1833Y3622D01*
X1834Y3622D01*
X1835Y3622D01*
X1836Y3622D01*
X1837Y3622D01*
X1838Y3622D01*
X1839Y3622D01*
X1840Y3622D01*
X1841Y3622D01*
X1842Y3622D01*
X1843Y3622D01*
X1844Y3622D01*
X1845Y3622D01*
X1846Y3622D01*
X1847Y3622D01*
X1848Y3622D01*
X1849Y3622D01*
X1850Y3622D01*
X1851Y3622D01*
X1852Y3622D01*
X1853Y3622D01*
X1854Y3622D01*
X1855Y3622D01*
X1856Y3622D01*
X1857Y3622D01*
X1858Y3622D01*
X1859Y3622D01*
X1860Y3622D01*
X1861Y3622D01*
X1862Y3622D01*
X1863Y3622D01*
X1864Y3622D01*
X1865Y3622D01*
X1866Y3622D01*
X1867Y3622D01*
X1868Y3622D01*
X1869Y3622D01*
X1870Y3622D01*
X1871Y3622D01*
X1872Y3622D01*
X1873Y3622D01*
X1874Y3622D01*
X1875Y3622D01*
X1876Y3622D01*
X1877Y3622D01*
X1878Y3622D01*
X1879Y3622D01*
X1880Y3622D01*
X1881Y3622D01*
X1882Y3622D01*
X1883Y3622D01*
X1884Y3622D01*
X1885Y3622D01*
X1886Y3622D01*
X1887Y3622D01*
X1888Y3622D01*
X1889Y3622D01*
X1890Y3622D01*
X1891Y3622D01*
X1892Y3622D01*
X1893Y3622D01*
X1894Y3622D01*
X1895Y3622D01*
X1896Y3622D01*
X1897Y3622D01*
X1898Y3622D01*
X1899Y3622D01*
X1900Y3622D01*
X1901Y3622D01*
X1902Y3622D01*
X1903Y3622D01*
X1904Y3622D01*
X1905Y3622D01*
X1906Y3622D01*
X1907Y3622D01*
X1908Y3622D01*
X1909Y3622D01*
X1910Y3622D01*
X1911Y3622D01*
X1912Y3622D01*
X1913Y3622D01*
X1914Y3622D01*
X1915Y3622D01*
X1916Y3622D01*
X1917Y3622D01*
X1918Y3622D01*
X1919Y3622D01*
X1920Y3622D01*
X1921Y3622D01*
X1922Y3622D01*
X1923Y3622D01*
X1924Y3622D01*
X1925Y3622D01*
X1926Y3622D01*
X1927Y3622D01*
X1928Y3622D01*
X1929Y3622D01*
X1930Y3622D01*
X1931Y3622D01*
X1932Y3622D01*
X1933Y3622D01*
X1934Y3622D01*
X1935Y3622D01*
X1936Y3622D01*
X1937Y3622D01*
X1938Y3622D01*
X1939Y3622D01*
X1940Y3622D01*
X1941Y3622D01*
X1942Y3622D01*
X1943Y3622D01*
X1944Y3622D01*
X1945Y3622D01*
X1946Y3622D01*
X1947Y3622D01*
X1948Y3622D01*
X1949Y3622D01*
X1950Y3622D01*
X1951Y3622D01*
X1952Y3622D01*
X1953Y3622D01*
X1954Y3622D01*
X1955Y3622D01*
X1956Y3622D01*
X1957Y3622D01*
X1958Y3622D01*
X1959Y3622D01*
X1960Y3622D01*
X1961Y3622D01*
X1962Y3622D01*
X1963Y3622D01*
X1964Y3622D01*
X1965Y3622D01*
X1966Y3622D01*
X1967Y3622D01*
X1968Y3622D01*
X1969Y3622D01*
X1970Y3622D01*
X1971Y3622D01*
X1972Y3622D01*
X1973Y3622D01*
X1974Y3622D01*
X1975Y3622D01*
X1976Y3622D01*
X1977Y3622D01*
X1978Y3622D01*
X1979Y3622D01*
X1980Y3622D01*
X1981Y3622D01*
X1982Y3622D01*
X1983Y3622D01*
X1984Y3622D01*
X1985Y3622D01*
X1986Y3622D01*
X1987Y3622D01*
X1988Y3622D01*
X1989Y3622D01*
X1990Y3622D01*
X1991Y3622D01*
X1992Y3622D01*
X1993Y3622D01*
X1994Y3622D01*
X1995Y3622D01*
X1996Y3622D01*
X1997Y3622D01*
X1998Y3622D01*
X1999Y3622D01*
X2000Y3622D01*
X2001Y3622D01*
X2002Y3622D01*
X2003Y3622D01*
X2004Y3622D01*
X2005Y3622D01*
X2006Y3622D01*
X2007Y3622D01*
X2008Y3622D01*
X2009Y3622D01*
X2010Y3622D01*
X2011Y3622D01*
X2012Y3622D01*
X2013Y3622D01*
X2014Y3622D01*
X2015Y3622D01*
X2016Y3622D01*
X2017Y3622D01*
X2018Y3622D01*
X2019Y3622D01*
X2020Y3622D01*
X2021Y3622D01*
X2022Y3622D01*
X2023Y3622D01*
X2024Y3622D01*
X2025Y3622D01*
X2026Y3622D01*
X2027Y3622D01*
X2028Y3622D01*
X2029Y3622D01*
X2030Y3622D01*
X2031Y3622D01*
X2032Y3622D01*
X2033Y3622D01*
X2034Y3622D01*
X2035Y3622D01*
X2036Y3622D01*
X2037Y3622D01*
X2038Y3622D01*
X2039Y3622D01*
X2040Y3622D01*
X2041Y3622D01*
X2042Y3622D01*
X2043Y3622D01*
X2044Y3622D01*
X2045Y3622D01*
X2046Y3622D01*
X2047Y3622D01*
X2048Y3622D01*
X2049Y3622D01*
X2050Y3622D01*
X2051Y3622D01*
X2052Y3622D01*
X2053Y3622D01*
X2054Y3622D01*
X2055Y3622D01*
X2056Y3622D01*
X2057Y3622D01*
X2058Y3622D01*
X2059Y3622D01*
X2060Y3622D01*
X2061Y3622D01*
X2062Y3622D01*
X2063Y3622D01*
X2064Y3622D01*
X2065Y3622D01*
X2066Y3622D01*
X2067Y3622D01*
X2068Y3622D01*
X2069Y3622D01*
X2070Y3622D01*
X2071Y3622D01*
X2072Y3622D01*
X2073Y3622D01*
X2074Y3622D01*
X2075Y3622D01*
X2076Y3622D01*
X2077Y3622D01*
X2078Y3622D01*
X2079Y3622D01*
X2080Y3622D01*
X2081Y3622D01*
X2082Y3622D01*
X2083Y3622D01*
X2084Y3622D01*
X2085Y3622D01*
X2086Y3622D01*
X2087Y3622D01*
X2088Y3622D01*
X2089Y3622D01*
X2090Y3622D01*
X2091Y3622D01*
X2092Y3622D01*
X2093Y3622D01*
X2094Y3622D01*
X2095Y3622D01*
X2096Y3622D01*
X2097Y3622D01*
X2098Y3622D01*
X2099Y3622D01*
X2100Y3622D01*
X2101Y3622D01*
X2102Y3622D01*
X2103Y3622D01*
X2104Y3622D01*
X2105Y3622D01*
X2106Y3622D01*
X2107Y3622D01*
X2108Y3622D01*
X2109Y3622D01*
X2110Y3622D01*
X2111Y3622D01*
X2112Y3622D01*
X2113Y3622D01*
X2114Y3622D01*
X2115Y3622D01*
X2116Y3622D01*
X2117Y3622D01*
X2118Y3622D01*
X2119Y3622D01*
X2120Y3622D01*
X2121Y3622D01*
X2122Y3622D01*
X2123Y3622D01*
X2124Y3622D01*
X2125Y3622D01*
X2126Y3622D01*
X2127Y3622D01*
X2128Y3622D01*
X2129Y3622D01*
X2130Y3622D01*
X2131Y3622D01*
X2132Y3622D01*
X2133Y3622D01*
X2134Y3622D01*
X2135Y3622D01*
X2136Y3622D01*
X2137Y3622D01*
X2138Y3622D01*
X2139Y3622D01*
X2140Y3622D01*
X2141Y3622D01*
X2142Y3622D01*
X2143Y3622D01*
X2144Y3622D01*
X2145Y3622D01*
X2146Y3622D01*
X2147Y3622D01*
X2148Y3622D01*
X2149Y3622D01*
X2150Y3622D01*
X2151Y3622D01*
X2152Y3622D01*
X2153Y3622D01*
X2154Y3622D01*
X2155Y3622D01*
X2156Y3622D01*
X2157Y3622D01*
X2158Y3622D01*
X2159Y3622D01*
X2160Y3622D01*
X2161Y3622D01*
X2162Y3622D01*
X2163Y3622D01*
X2164Y3622D01*
X2165Y3622D01*
X2166Y3622D01*
X2167Y3622D01*
X2168Y3622D01*
X2169Y3622D01*
X2170Y3622D01*
X2171Y3622D01*
X2172Y3622D01*
X2173Y3622D01*
X2174Y3622D01*
X2175Y3622D01*
X2176Y3622D01*
X2177Y3622D01*
X2178Y3622D01*
X2179Y3622D01*
X2180Y3622D01*
X2181Y3622D01*
X2182Y3622D01*
X2183Y3622D01*
X2184Y3622D01*
X2185Y3622D01*
X2186Y3622D01*
X2187Y3622D01*
X2188Y3622D01*
X2189Y3622D01*
X2190Y3622D01*
X2191Y3622D01*
X2192Y3622D01*
X2193Y3622D01*
X2194Y3622D01*
X2195Y3622D01*
X2196Y3622D01*
X2197Y3622D01*
X2198Y3622D01*
X2199Y3622D01*
X2200Y3622D01*
X2201Y3622D01*
X2202Y3622D01*
X2203Y3622D01*
X2204Y3622D01*
X2205Y3622D01*
X2206Y3622D01*
X2207Y3622D01*
X2208Y3622D01*
X2209Y3622D01*
X2210Y3622D01*
X2211Y3622D01*
X2212Y3622D01*
X2213Y3622D01*
X2214Y3622D01*
X2215Y3622D01*
X2216Y3622D01*
X2217Y3622D01*
X2218Y3622D01*
X2219Y3622D01*
X2220Y3622D01*
X2221Y3622D01*
X2222Y3622D01*
X2223Y3622D01*
X2224Y3622D01*
X2225Y3622D01*
X2226Y3622D01*
X2227Y3622D01*
X2228Y3622D01*
X2229Y3622D01*
X2230Y3622D01*
X2231Y3622D01*
X2232Y3622D01*
X2233Y3622D01*
X2234Y3622D01*
X2235Y3622D01*
X2236Y3622D01*
X2237Y3622D01*
X2238Y3622D01*
X2239Y3622D01*
X2240Y3622D01*
X2241Y3622D01*
X2242Y3622D01*
X2243Y3622D01*
X2244Y3622D01*
X2245Y3622D01*
X2246Y3622D01*
X2247Y3622D01*
X2248Y3622D01*
X2249Y3622D01*
X2250Y3622D01*
X2251Y3622D01*
X2252Y3622D01*
X2253Y3622D01*
X2254Y3622D01*
X2255Y3622D01*
X2256Y3622D01*
X2257Y3622D01*
X2258Y3622D01*
X2259Y3622D01*
X2260Y3622D01*
X2261Y3622D01*
X2262Y3622D01*
X2263Y3622D01*
X2264Y3622D01*
X2265Y3622D01*
X2266Y3622D01*
X2267Y3622D01*
X2268Y3622D01*
X2269Y3622D01*
X2270Y3622D01*
X2271Y3622D01*
X2272Y3622D01*
X2273Y3622D01*
X2274Y3622D01*
X2275Y3622D01*
X2276Y3622D01*
X2277Y3622D01*
X2278Y3622D01*
X2279Y3622D01*
X2280Y3622D01*
X2281Y3622D01*
X2282Y3622D01*
X2283Y3622D01*
X2284Y3622D01*
X2285Y3622D01*
X2286Y3622D01*
X2287Y3622D01*
X2288Y3622D01*
X2289Y3622D01*
X2290Y3622D01*
X2291Y3622D01*
X2292Y3622D01*
X2293Y3622D01*
X2294Y3622D01*
X2295Y3622D01*
X2296Y3622D01*
X2297Y3622D01*
X2298Y3622D01*
X2299Y3622D01*
X2300Y3622D01*
X2301Y3622D01*
X2302Y3622D01*
X2303Y3622D01*
X2304Y3622D01*
X2305Y3622D01*
X2306Y3622D01*
X2307Y3622D01*
X2308Y3622D01*
X2309Y3622D01*
X2310Y3622D01*
X2311Y3622D01*
X2312Y3622D01*
X2313Y3622D01*
X2314Y3622D01*
X2315Y3622D01*
X2316Y3622D01*
X2317Y3622D01*
X2318Y3622D01*
X2319Y3622D01*
X2320Y3622D01*
X2321Y3622D01*
X2322Y3622D01*
X2323Y3622D01*
X2324Y3622D01*
X2325Y3622D01*
X2326Y3622D01*
X2327Y3622D01*
X2328Y3622D01*
X2329Y3622D01*
X2330Y3622D01*
X2331Y3622D01*
X2332Y3622D01*
X2333Y3622D01*
X2334Y3622D01*
X2335Y3622D01*
X2336Y3622D01*
X2337Y3622D01*
X2338Y3622D01*
X2339Y3622D01*
X2340Y3622D01*
X2341Y3622D01*
X2342Y3622D01*
X2343Y3622D01*
X2344Y3622D01*
X2345Y3622D01*
X2346Y3622D01*
X2347Y3622D01*
X2348Y3622D01*
X2349Y3622D01*
X2350Y3622D01*
X2351Y3622D01*
X2352Y3622D01*
X2353Y3622D01*
X2354Y3622D01*
X2355Y3622D01*
X2356Y3622D01*
X2357Y3622D01*
X2358Y3622D01*
X2359Y3622D01*
X2360Y3622D01*
X2361Y3622D01*
X2362Y3622D01*
X2363Y3622D01*
X2364Y3622D01*
X2365Y3622D01*
X2366Y3622D01*
X2367Y3622D01*
X2368Y3622D01*
X2369Y3622D01*
X2370Y3622D01*
X2371Y3622D01*
X2372Y3622D01*
X2373Y3622D01*
X2374Y3622D01*
X2375Y3622D01*
X2376Y3622D01*
X2377Y3622D01*
X2378Y3622D01*
X2379Y3622D01*
X2380Y3622D01*
X2381Y3622D01*
X2382Y3622D01*
X2383Y3622D01*
X2384Y3622D01*
X2385Y3622D01*
X2386Y3622D01*
X2387Y3622D01*
X2388Y3622D01*
X2389Y3622D01*
X2390Y3622D01*
X2391Y3622D01*
X2392Y3622D01*
X2393Y3622D01*
X2394Y3622D01*
X2395Y3622D01*
X2396Y3622D01*
X2397Y3622D01*
X2398Y3622D01*
X2399Y3622D01*
X2400Y3622D01*
X2401Y3622D01*
X2402Y3622D01*
X2403Y3622D01*
X2404Y3622D01*
X2405Y3622D01*
X2406Y3622D01*
X2407Y3622D01*
X2408Y3622D01*
X2409Y3622D01*
X2410Y3622D01*
X2411Y3622D01*
X2412Y3622D01*
X2413Y3622D01*
X2414Y3622D01*
X2415Y3622D01*
X2416Y3622D01*
X2417Y3622D01*
X2418Y3622D01*
X2419Y3622D01*
X2420Y3622D01*
X2421Y3622D01*
X2422Y3622D01*
X2423Y3622D01*
X2424Y3622D01*
X2425Y3622D01*
X2426Y3622D01*
X2427Y3622D01*
X2428Y3622D01*
X2429Y3622D01*
X2430Y3622D01*
X2431Y3622D01*
X2432Y3622D01*
X2433Y3622D01*
X2434Y3622D01*
X2435Y3622D01*
X2436Y3622D01*
X2437Y3622D01*
X2438Y3622D01*
X2439Y3622D01*
X2440Y3622D01*
X2441Y3622D01*
X2442Y3622D01*
X2443Y3622D01*
X2444Y3622D01*
X2445Y3622D01*
X2446Y3622D01*
X2447Y3622D01*
X2448Y3622D01*
X2449Y3622D01*
X2450Y3622D01*
X2451Y3622D01*
X2452Y3622D01*
X2453Y3622D01*
X2454Y3622D01*
X2455Y3622D01*
X2456Y3622D01*
X2457Y3622D01*
X2458Y3622D01*
X2459Y3622D01*
X2460Y3622D01*
X2461Y3622D01*
X2462Y3622D01*
X2463Y3622D01*
X2464Y3622D01*
X2465Y3622D01*
X2466Y3622D01*
X2467Y3622D01*
X2468Y3622D01*
X2469Y3622D01*
X2470Y3622D01*
X2471Y3622D01*
X2472Y3622D01*
X2473Y3622D01*
X2474Y3622D01*
X2475Y3622D01*
X2476Y3622D01*
X2477Y3622D01*
X2478Y3622D01*
X2479Y3622D01*
X2480Y3622D01*
X2481Y3622D01*
X2482Y3622D01*
X2483Y3622D01*
X2484Y3622D01*
X2485Y3622D01*
X2486Y3622D01*
X2487Y3622D01*
X2488Y3622D01*
X2489Y3622D01*
X2490Y3622D01*
X2491Y3622D01*
X2492Y3622D01*
X2493Y3622D01*
X2494Y3622D01*
X2495Y3622D01*
X2496Y3622D01*
X2497Y3622D01*
X2498Y3622D01*
X2499Y3622D01*
X2500Y3622D01*
X2501Y3622D01*
X2502Y3622D01*
X2503Y3622D01*
X2504Y3622D01*
X2505Y3622D01*
X2506Y3622D01*
X2507Y3622D01*
X2508Y3622D01*
X2509Y3622D01*
X2510Y3622D01*
X2511Y3622D01*
X2512Y3622D01*
X2513Y3622D01*
X2514Y3622D01*
X2515Y3622D01*
X2516Y3622D01*
X2517Y3622D01*
X2518Y3622D01*
X2519Y3622D01*
X2520Y3622D01*
X2521Y3622D01*
X2522Y3622D01*
X2523Y3622D01*
X2524Y3622D01*
X2525Y3622D01*
X2526Y3622D01*
X2527Y3622D01*
X2528Y3622D01*
X2529Y3622D01*
X2530Y3622D01*
X2531Y3622D01*
X2532Y3622D01*
X2533Y3622D01*
X2534Y3622D01*
X2535Y3622D01*
X2536Y3622D01*
X2537Y3622D01*
X2538Y3622D01*
X2539Y3622D01*
X2540Y3622D01*
X2541Y3622D01*
X2542Y3622D01*
X2543Y3622D01*
X2544Y3622D01*
X2545Y3622D01*
X2546Y3622D01*
X2547Y3622D01*
X2548Y3622D01*
X2549Y3622D01*
X2550Y3622D01*
X2551Y3622D01*
X2552Y3622D01*
X2553Y3622D01*
X2554Y3622D01*
X2555Y3622D01*
X2556Y3622D01*
X2557Y3622D01*
X2558Y3622D01*
X2559Y3622D01*
X2560Y3622D01*
X2561Y3622D01*
X2562Y3622D01*
X2563Y3622D01*
X2564Y3622D01*
X2565Y3622D01*
X2566Y3622D01*
X2567Y3622D01*
X2568Y3622D01*
X2569Y3622D01*
X2570Y3622D01*
X2571Y3622D01*
X2572Y3622D01*
X2573Y3622D01*
X2574Y3622D01*
X2575Y3622D01*
X2576Y3622D01*
X2577Y3622D01*
X2578Y3622D01*
X2579Y3622D01*
X2580Y3622D01*
X2581Y3622D01*
X2582Y3622D01*
X2583Y3622D01*
X2584Y3622D01*
X2585Y3622D01*
X2586Y3622D01*
X2587Y3622D01*
X2588Y3622D01*
X2589Y3622D01*
X2590Y3622D01*
X2591Y3622D01*
X2592Y3622D01*
X2593Y3622D01*
X2594Y3622D01*
X2595Y3622D01*
X2596Y3622D01*
X2597Y3622D01*
X2598Y3622D01*
X2599Y3622D01*
X2600Y3622D01*
X2601Y3622D01*
X2602Y3622D01*
X2603Y3622D01*
X2604Y3622D01*
X2605Y3622D01*
X2606Y3622D01*
X2607Y3622D01*
X2608Y3622D01*
X2609Y3622D01*
X2610Y3622D01*
X2611Y3622D01*
X2612Y3622D01*
X2613Y3622D01*
X2614Y3622D01*
X2615Y3622D01*
X2616Y3622D01*
X2617Y3622D01*
X2618Y3622D01*
X2619Y3622D01*
X2620Y3622D01*
X2621Y3622D01*
X2622Y3622D01*
X2623Y3622D01*
X2624Y3622D01*
X2625Y3622D01*
X2626Y3622D01*
X2627Y3622D01*
X2628Y3622D01*
X2629Y3622D01*
X2630Y3622D01*
X2631Y3622D01*
X2632Y3622D01*
X2633Y3622D01*
X2634Y3622D01*
X2635Y3622D01*
X2636Y3622D01*
X2637Y3622D01*
X2638Y3622D01*
X2639Y3622D01*
X2640Y3622D01*
X2641Y3622D01*
X2642Y3622D01*
X2643Y3622D01*
X2644Y3622D01*
X2645Y3622D01*
X2646Y3622D01*
X2647Y3622D01*
X2648Y3622D01*
X2649Y3622D01*
X2650Y3622D01*
X2651Y3622D01*
X2652Y3622D01*
X2653Y3622D01*
X2654Y3622D01*
X2655Y3622D01*
X2656Y3622D01*
X2657Y3622D01*
X2658Y3622D01*
X2659Y3622D01*
X2660Y3622D01*
X2661Y3622D01*
X2662Y3622D01*
X2663Y3622D01*
X2664Y3622D01*
X2665Y3622D01*
X2666Y3622D01*
X2667Y3622D01*
X2668Y3622D01*
X2669Y3622D01*
X2670Y3622D01*
X2671Y3622D01*
X2672Y3622D01*
X2673Y3622D01*
X2674Y3622D01*
X2675Y3622D01*
X2676Y3622D01*
X2677Y3622D01*
X2678Y3622D01*
X2679Y3622D01*
X2680Y3622D01*
X2681Y3622D01*
X2682Y3622D01*
X2683Y3622D01*
X2684Y3622D01*
X2685Y3622D01*
X2686Y3622D01*
X2687Y3622D01*
X2688Y3622D01*
X2689Y3622D01*
X2690Y3622D01*
X2691Y3622D01*
X2692Y3622D01*
X2693Y3622D01*
X2694Y3622D01*
X2695Y3622D01*
X2696Y3622D01*
X2697Y3622D01*
X2698Y3622D01*
X2699Y3622D01*
X2700Y3622D01*
X2701Y3622D01*
X2702Y3622D01*
X2703Y3622D01*
X2704Y3622D01*
X2705Y3622D01*
X2706Y3622D01*
X2707Y3622D01*
X2708Y3622D01*
X2709Y3622D01*
X2710Y3622D01*
X2711Y3622D01*
X2712Y3622D01*
X2713Y3622D01*
X2714Y3622D01*
X2715Y3622D01*
X2716Y3622D01*
X2717Y3622D01*
X2718Y3622D01*
X2719Y3622D01*
X2720Y3622D01*
X2721Y3622D01*
X2722Y3622D01*
X2723Y3622D01*
X2724Y3622D01*
X2725Y3622D01*
X2726Y3622D01*
X2727Y3622D01*
X2728Y3622D01*
X2729Y3622D01*
X2730Y3622D01*
X2731Y3622D01*
X2732Y3622D01*
X2733Y3622D01*
X2734Y3622D01*
X2735Y3622D01*
X2736Y3622D01*
X2737Y3622D01*
X2738Y3622D01*
X2739Y3622D01*
X2740Y3622D01*
X2741Y3622D01*
X2742Y3622D01*
X2743Y3622D01*
X2744Y3622D01*
X2745Y3622D01*
X2746Y3622D01*
X2747Y3622D01*
X2748Y3622D01*
X2749Y3622D01*
X2750Y3622D01*
X2751Y3622D01*
X2752Y3622D01*
X2753Y3622D01*
X2754Y3622D01*
X2755Y3622D01*
X2756Y3622D01*
X2757Y3622D01*
X2758Y3622D01*
X2759Y3622D01*
X2760Y3622D01*
X2761Y3622D01*
X2762Y3622D01*
X2763Y3622D01*
X2764Y3622D01*
X2765Y3622D01*
X2766Y3622D01*
X2767Y3622D01*
X2768Y3622D01*
X2769Y3622D01*
X2770Y3622D01*
X2771Y3622D01*
X2772Y3622D01*
X2773Y3622D01*
X2774Y3622D01*
X2775Y3622D01*
X2776Y3622D01*
X2777Y3622D01*
X2778Y3622D01*
X2779Y3622D01*
X2780Y3622D01*
X2781Y3622D01*
X2782Y3622D01*
X2783Y3622D01*
X2784Y3622D01*
X2785Y3622D01*
X2786Y3622D01*
X2787Y3622D01*
X2788Y3622D01*
X2789Y3622D01*
X2790Y3622D01*
X2791Y3622D01*
X2792Y3622D01*
X2793Y3622D01*
X2794Y3622D01*
X2795Y3622D01*
X2796Y3622D01*
X2797Y3622D01*
X2798Y3622D01*
X2799Y3622D01*
X2800Y3622D01*
X2801Y3622D01*
X2802Y3622D01*
X2803Y3622D01*
X2804Y3622D01*
X2805Y3622D01*
X2806Y3622D01*
X2807Y3622D01*
X2808Y3622D01*
X2809Y3622D01*
X2810Y3622D01*
X2811Y3622D01*
X2812Y3622D01*
X2813Y3622D01*
X2814Y3622D01*
X2815Y3622D01*
X2816Y3622D01*
X2817Y3622D01*
X2818Y3622D01*
X2819Y3622D01*
X2820Y3622D01*
X2821Y3622D01*
X2822Y3622D01*
X2823Y3622D01*
X2824Y3622D01*
X2825Y3622D01*
X2826Y3622D01*
X2827Y3622D01*
X2828Y3622D01*
X2829Y3622D01*
X2830Y3622D01*
X2831Y3622D01*
X2832Y3622D01*
X2833Y3622D01*
X2834Y3622D01*
X2835Y3622D01*
X2836Y3622D01*
X2837Y3622D01*
X2838Y3622D01*
X2839Y3622D01*
X2840Y3622D01*
X2841Y3622D01*
X2842Y3622D01*
X2843Y3622D01*
X2844Y3622D01*
X2845Y3622D01*
X2846Y3622D01*
X2847Y3622D01*
X2848Y3622D01*
X2849Y3622D01*
X2850Y3622D01*
X2851Y3622D01*
X2852Y3622D01*
X2853Y3622D01*
X2854Y3622D01*
X2855Y3622D01*
X2856Y3622D01*
X2857Y3622D01*
X2858Y3622D01*
X2859Y3622D01*
X2860Y3622D01*
X2861Y3622D01*
X2862Y3622D01*
X2863Y3622D01*
X2864Y3622D01*
X2865Y3622D01*
X2866Y3622D01*
X2867Y3622D01*
X2868Y3622D01*
X2869Y3622D01*
X2870Y3622D01*
X2871Y3622D01*
X2872Y3622D01*
X2873Y3622D01*
X2874Y3622D01*
X2875Y3622D01*
X2876Y3622D01*
X2877Y3622D01*
X2878Y3622D01*
X2879Y3622D01*
X2880Y3622D01*
X2881Y3622D01*
X2882Y3622D01*
X2883Y3622D01*
X2884Y3622D01*
X2885Y3622D01*
X2886Y3622D01*
X2887Y3622D01*
X2888Y3622D01*
X2889Y3622D01*
X2890Y3622D01*
X2891Y3622D01*
X2892Y3621D01*
X2893Y3621D01*
X2894Y3621D01*
X2895Y3621D01*
X2896Y3621D01*
X2897Y3621D01*
X2898Y3621D01*
X2899Y3621D01*
X2900Y3621D01*
X2901Y3621D01*
X2902Y3621D01*
X2903Y3621D01*
X2904Y3621D01*
X2905Y3621D01*
X2906Y3621D01*
X2907Y3620D01*
X2908Y3620D01*
X2909Y3620D01*
X2910Y3620D01*
X2911Y3620D01*
X2912Y3620D01*
X2913Y3620D01*
X2914Y3620D01*
X2915Y3620D01*
X2916Y3620D01*
X2917Y3619D01*
X2918Y3619D01*
X2919Y3619D01*
X2920Y3619D01*
X2921Y3619D01*
X2922Y3619D01*
X2923Y3619D01*
X2924Y3619D01*
X2925Y3618D01*
X2926Y3618D01*
X2927Y3618D01*
X2928Y3618D01*
X2929Y3618D01*
X2930Y3618D01*
X2931Y3618D01*
X2932Y3617D01*
X2933Y3617D01*
X2934Y3617D01*
X2935Y3617D01*
X2936Y3617D01*
X2937Y3617D01*
X2938Y3617D01*
X2939Y3616D01*
X2940Y3616D01*
X2941Y3616D01*
X2942Y3616D01*
X2943Y3616D01*
X2944Y3615D01*
X2945Y3615D01*
X2946Y3615D01*
X2947Y3615D01*
X2948Y3615D01*
X2949Y3615D01*
X2950Y3614D01*
X2951Y3614D01*
X2952Y3614D01*
X2953Y3614D01*
X2954Y3614D01*
X2955Y3613D01*
X2956Y3613D01*
X2957Y3613D01*
X2958Y3613D01*
X2959Y3612D01*
X2960Y3612D01*
X2961Y3612D01*
X2962Y3612D01*
X2963Y3612D01*
X2964Y3611D01*
X2965Y3611D01*
X2966Y3611D01*
X2967Y3611D01*
X2968Y3610D01*
X2969Y3610D01*
X2970Y3610D01*
X2971Y3610D01*
X2972Y3609D01*
X2973Y3609D01*
X2974Y3609D01*
X2975Y3609D01*
X2976Y3608D01*
X2977Y3608D01*
X2978Y3608D01*
X2979Y3608D01*
X2980Y3607D01*
X2981Y3607D01*
X2982Y3607D01*
X2983Y3606D01*
X2984Y3606D01*
X2985Y3606D01*
X2986Y3606D01*
X2987Y3605D01*
X2988Y3605D01*
X2989Y3605D01*
X2990Y3604D01*
X2991Y3604D01*
X2992Y3604D01*
X2993Y3603D01*
X2994Y3603D01*
X2995Y3603D01*
X2996Y3602D01*
X2997Y3602D01*
X2998Y3602D01*
X2999Y3601D01*
X3000Y3601D01*
X3001Y3601D01*
X3002Y3600D01*
X3003Y3600D01*
X3004Y3600D01*
X3005Y3599D01*
X3006Y3599D01*
X3007Y3599D01*
X3008Y3598D01*
X3009Y3598D01*
X3010Y3598D01*
X3011Y3597D01*
X3012Y3597D01*
X3013Y3596D01*
X3014Y3596D01*
X3015Y3596D01*
X3016Y3595D01*
X3017Y3595D01*
X3018Y3595D01*
X3019Y3594D01*
X3020Y3594D01*
X3021Y3593D01*
X3022Y3593D01*
X3023Y3593D01*
X3024Y3592D01*
X3025Y3592D01*
X3026Y3591D01*
X3027Y3591D01*
X3028Y3591D01*
X3029Y3590D01*
X3030Y3590D01*
X3031Y3589D01*
X3032Y3589D01*
X3033Y3588D01*
X3034Y3588D01*
X3035Y3587D01*
X3036Y3587D01*
X3037Y3587D01*
X3038Y3586D01*
X3039Y3586D01*
X3040Y3585D01*
X3041Y3585D01*
X3042Y3584D01*
X3043Y3584D01*
X3044Y3583D01*
X3045Y3583D01*
X3046Y3582D01*
X3047Y3582D01*
X3048Y3581D01*
X3049Y3581D01*
X3050Y3580D01*
X3051Y3580D01*
X3052Y3579D01*
X3053Y3579D01*
X3054Y3579D01*
X3055Y3578D01*
X3056Y3578D01*
X3057Y3577D01*
X3058Y3577D01*
X3059Y3576D01*
X3060Y3576D01*
X3061Y3575D01*
X3062Y3574D01*
X3063Y3574D01*
X3064Y3573D01*
X3065Y3573D01*
X3066Y3572D01*
X3067Y3572D01*
X3068Y3571D01*
X3069Y3570D01*
X3070Y3570D01*
X3071Y3569D01*
X3072Y3569D01*
X3073Y3568D01*
X3074Y3568D01*
X3075Y3567D01*
X3076Y3567D01*
X3077Y3566D01*
X3078Y3565D01*
X3079Y3565D01*
X3080Y3564D01*
X3081Y3563D01*
X3082Y3563D01*
X3083Y3562D01*
X3084Y3562D01*
X3085Y3561D01*
X3086Y3560D01*
X3087Y3560D01*
X3088Y3559D01*
X3089Y3559D01*
X3090Y3558D01*
X3091Y3557D01*
X3092Y3557D01*
X3093Y3556D01*
X3094Y3555D01*
X3095Y3555D01*
X3096Y3554D01*
X3097Y3553D01*
X3098Y3553D01*
X3099Y3552D01*
X3100Y3551D01*
X3101Y3550D01*
X3102Y3550D01*
X3103Y3549D01*
X3104Y3548D01*
X3105Y3548D01*
X3106Y3547D01*
X3107Y3546D01*
X3108Y3546D01*
X3109Y3545D01*
X3110Y3544D01*
X3111Y3543D01*
X3112Y3543D01*
X3113Y3542D01*
X3114Y3541D01*
X3115Y3540D01*
X3116Y3540D01*
X3117Y3539D01*
X3118Y3538D01*
X3119Y3537D01*
X3120Y3536D01*
X3121Y3536D01*
X3122Y3535D01*
X3123Y3534D01*
X3124Y3533D01*
X3125Y3533D01*
X3126Y3532D01*
X3127Y3531D01*
X3128Y3530D01*
X3129Y3529D01*
X3130Y3528D01*
X3131Y3527D01*
X3132Y3527D01*
X3133Y3526D01*
X3134Y3525D01*
X3135Y3524D01*
X3136Y3523D01*
X3137Y3522D01*
X3138Y3522D01*
X3139Y3521D01*
X3140Y3520D01*
X3141Y3519D01*
X3142Y3518D01*
X3143Y3517D01*
X3144Y3516D01*
X3145Y3515D01*
X3146Y3514D01*
X3147Y3513D01*
X3148Y3512D01*
X3149Y3511D01*
X3150Y3510D01*
X3151Y3509D01*
X3152Y3508D01*
X3153Y3507D01*
X3154Y3506D01*
X3155Y3505D01*
X3156Y3504D01*
X3157Y3503D01*
X3158Y3502D01*
X3159Y3501D01*
X3160Y3500D01*
X3161Y3499D01*
X3162Y3498D01*
X3163Y3497D01*
X3164Y3496D01*
X3165Y3495D01*
X3166Y3494D01*
X3167Y3493D01*
X3168Y3492D01*
X3169Y3491D01*
X3169Y3490D01*
X3170Y3489D01*
X3171Y3488D01*
X3172Y3487D01*
X3173Y3486D01*
X3174Y3485D01*
X3175Y3484D01*
X3176Y3483D01*
X3177Y3482D01*
X3177Y3481D01*
X3178Y3480D01*
X3179Y3479D01*
X3180Y3478D01*
X3181Y3477D01*
X3181Y3476D01*
X3182Y3475D01*
X3183Y3474D01*
X3184Y3473D01*
X3185Y3472D01*
X3185Y3471D01*
X3186Y3470D01*
X3187Y3469D01*
X3188Y3468D01*
X3189Y3467D01*
X3189Y3466D01*
X3190Y3465D01*
X3191Y3464D01*
X3191Y3463D01*
X3192Y3462D01*
X3193Y3461D01*
X3194Y3460D01*
X3194Y3459D01*
X3195Y3458D01*
X3196Y3457D01*
X3197Y3456D01*
X3197Y3455D01*
X3198Y3454D01*
X3199Y3453D01*
X3199Y3452D01*
X3200Y3451D01*
X3201Y3450D01*
X3201Y3449D01*
X3202Y3448D01*
X3203Y3447D01*
X3203Y3446D01*
X3204Y3445D01*
X3205Y3444D01*
X3205Y3443D01*
X3206Y3442D01*
X3207Y3441D01*
X3207Y3440D01*
X3208Y3439D01*
X3209Y3438D01*
X3209Y3437D01*
X3210Y3436D01*
X3210Y3435D01*
X3211Y3434D01*
X3212Y3433D01*
X3212Y3432D01*
X3213Y3431D01*
X3213Y3430D01*
X3214Y3429D01*
X3215Y3428D01*
X3215Y3427D01*
X3216Y3426D01*
X3216Y3425D01*
X3217Y3424D01*
X3218Y3423D01*
X3218Y3422D01*
X3219Y3421D01*
X3219Y3420D01*
X3220Y3419D01*
X3220Y3418D01*
X3221Y3417D01*
X3221Y3416D01*
X3222Y3415D01*
X3222Y3414D01*
X3223Y3413D01*
X3223Y3412D01*
X3224Y3411D01*
X3224Y3410D01*
X3225Y3409D01*
X3226Y3408D01*
X3226Y3407D01*
X3227Y3406D01*
X3227Y3405D01*
X3228Y3404D01*
X3228Y3402D01*
X3229Y3401D01*
X3229Y3400D01*
X3230Y3399D01*
X3230Y3398D01*
X3231Y3397D01*
X3231Y3396D01*
X3232Y3395D01*
X3232Y3394D01*
X3233Y3393D01*
X3233Y3392D01*
X3234Y3391D01*
X3234Y3390D01*
X3235Y3389D01*
X3235Y3387D01*
X3236Y3386D01*
X3236Y3385D01*
X3237Y3384D01*
X3237Y3382D01*
X3238Y3381D01*
X3238Y3380D01*
X3239Y3379D01*
X3239Y3377D01*
X3240Y3376D01*
X3240Y3375D01*
X3241Y3374D01*
X3241Y3372D01*
X3242Y3371D01*
X3242Y3370D01*
X3243Y3369D01*
X3243Y3367D01*
X3244Y3366D01*
X3244Y3364D01*
X3245Y3363D01*
X3245Y3361D01*
X3246Y3360D01*
X3246Y3358D01*
X3247Y3357D01*
X3247Y3355D01*
X3248Y3354D01*
X3248Y3352D01*
X3249Y3351D01*
X3249Y3349D01*
X3250Y3348D01*
X3250Y3346D01*
X3251Y3345D01*
X3251Y3343D01*
X3252Y3342D01*
X3252Y3339D01*
X3253Y3338D01*
X3253Y3335D01*
X3254Y3334D01*
X3254Y3331D01*
X3255Y3330D01*
X3255Y3327D01*
X3256Y3326D01*
X3256Y3323D01*
X3257Y3322D01*
X3257Y3319D01*
X3258Y3318D01*
X3258Y3314D01*
X3259Y3313D01*
X3259Y3309D01*
X3260Y3308D01*
X3260Y3303D01*
X3261Y3302D01*
X3261Y3297D01*
X3262Y3296D01*
X3262Y3290D01*
X3263Y3289D01*
X3263Y3283D01*
X3264Y3282D01*
X3264Y3273D01*
X3265Y3272D01*
X3265Y3259D01*
X3266Y3258D01*
X3266Y365D01*
X3265Y364D01*
X3265Y351D01*
X3264Y350D01*
X3264Y341D01*
X3263Y340D01*
X3263Y334D01*
X3262Y333D01*
X3262Y327D01*
X3261Y326D01*
X3261Y321D01*
X3260Y320D01*
X3260Y315D01*
X3259Y314D01*
X3259Y310D01*
X3258Y309D01*
X3258Y305D01*
X3257Y304D01*
X3257Y301D01*
X3256Y300D01*
X3256Y297D01*
X3255Y296D01*
X3255Y293D01*
X3254Y292D01*
X3254Y289D01*
X3253Y288D01*
X3253Y285D01*
X3252Y284D01*
X3252Y281D01*
X3251Y280D01*
X3251Y278D01*
X3250Y277D01*
X3250Y275D01*
X3249Y274D01*
X3249Y272D01*
X3248Y271D01*
X3248Y269D01*
X3247Y268D01*
X3247Y266D01*
X3246Y265D01*
X3246Y263D01*
X3245Y262D01*
X3245Y260D01*
X3244Y259D01*
X3244Y257D01*
X3243Y256D01*
X3243Y254D01*
X3242Y253D01*
X3242Y252D01*
X3241Y251D01*
X3241Y249D01*
X3240Y248D01*
X3240Y247D01*
X3239Y246D01*
X3239Y244D01*
X3238Y243D01*
X3238Y242D01*
X3237Y241D01*
X3237Y239D01*
X3236Y238D01*
X3236Y237D01*
X3235Y236D01*
X3235Y234D01*
X3234Y233D01*
X3234Y232D01*
X3233Y231D01*
X3233Y230D01*
X3232Y229D01*
X3232Y228D01*
X3231Y227D01*
X3231Y226D01*
X3230Y225D01*
X3230Y224D01*
X3229Y223D01*
X3229Y222D01*
X3228Y221D01*
X3228Y219D01*
X3227Y218D01*
X3227Y217D01*
X3226Y216D01*
X3226Y215D01*
X3225Y214D01*
X3224Y213D01*
X3224Y212D01*
X3223Y211D01*
X3223Y210D01*
X3222Y209D01*
X3222Y208D01*
X3221Y207D01*
X3221Y206D01*
X3220Y205D01*
X3220Y204D01*
X3219Y203D01*
X3219Y202D01*
X3218Y201D01*
X3218Y200D01*
X3217Y199D01*
X3216Y198D01*
X3216Y197D01*
X3215Y196D01*
X3215Y195D01*
X3214Y194D01*
X3213Y193D01*
X3213Y192D01*
X3212Y191D01*
X3212Y190D01*
X3211Y189D01*
X3210Y188D01*
X3210Y187D01*
X3209Y186D01*
X3209Y185D01*
X3208Y184D01*
X3207Y183D01*
X3207Y182D01*
X3206Y181D01*
X3205Y180D01*
X3205Y179D01*
X3204Y178D01*
X3203Y177D01*
X3203Y176D01*
X3202Y175D01*
X3201Y174D01*
X3201Y173D01*
X3200Y172D01*
X3199Y171D01*
X3199Y170D01*
X3198Y169D01*
X3197Y168D01*
X3197Y167D01*
X3196Y166D01*
X3195Y165D01*
X3194Y164D01*
X3194Y163D01*
X3193Y162D01*
X3192Y161D01*
X3191Y160D01*
X3191Y159D01*
X3190Y158D01*
X3189Y157D01*
X3189Y156D01*
X3188Y155D01*
X3187Y154D01*
X3186Y153D01*
X3185Y152D01*
X3185Y151D01*
X3184Y150D01*
X3183Y149D01*
X3182Y148D01*
X3181Y147D01*
X3181Y146D01*
X3180Y145D01*
X3179Y144D01*
X3178Y143D01*
X3177Y142D01*
X3177Y141D01*
X3176Y140D01*
X3175Y139D01*
X3174Y138D01*
X3173Y137D01*
X3172Y136D01*
X3171Y135D01*
X3170Y134D01*
X3169Y133D01*
X3169Y132D01*
X3168Y131D01*
X3167Y130D01*
X3166Y129D01*
X3165Y128D01*
X3164Y127D01*
X3163Y126D01*
X3162Y125D01*
X3161Y124D01*
X3160Y123D01*
X3159Y122D01*
X3158Y121D01*
X3157Y120D01*
X3156Y119D01*
X3155Y118D01*
X3154Y117D01*
X3153Y116D01*
X3152Y115D01*
X3151Y114D01*
X3150Y113D01*
X3149Y112D01*
X3148Y111D01*
X3147Y110D01*
X3146Y109D01*
X3145Y108D01*
X3144Y107D01*
X3143Y106D01*
X3142Y105D01*
X3141Y104D01*
X3140Y103D01*
X3139Y102D01*
X3138Y101D01*
X3137Y101D01*
X3136Y100D01*
X3135Y99D01*
X3134Y98D01*
X3133Y97D01*
X3132Y96D01*
X3131Y96D01*
X3130Y95D01*
X3129Y94D01*
X3128Y93D01*
X3127Y92D01*
X3126Y91D01*
X3125Y90D01*
X3124Y90D01*
X3123Y89D01*
X3122Y88D01*
X3121Y87D01*
X3120Y87D01*
X3119Y86D01*
X3118Y85D01*
X3117Y84D01*
X3116Y83D01*
X3115Y83D01*
X3114Y82D01*
X3113Y81D01*
X3112Y80D01*
X3111Y80D01*
X3110Y79D01*
X3109Y78D01*
X3108Y77D01*
X3107Y77D01*
X3106Y76D01*
X3105Y75D01*
X3104Y75D01*
X3103Y74D01*
X3102Y73D01*
X3101Y73D01*
X3100Y72D01*
X3099Y71D01*
X3098Y70D01*
X3097Y70D01*
X3096Y69D01*
X3095Y68D01*
X3094Y68D01*
X3093Y67D01*
X3092Y66D01*
X3091Y66D01*
X3090Y65D01*
X3089Y64D01*
X3088Y64D01*
X3087Y63D01*
X3086Y63D01*
X3085Y62D01*
X3084Y61D01*
X3083Y61D01*
X3082Y60D01*
X3081Y60D01*
X3080Y59D01*
X3079Y58D01*
X3078Y58D01*
X3077Y57D01*
X3076Y56D01*
X3075Y56D01*
X3074Y55D01*
X3073Y55D01*
X3072Y54D01*
X3071Y54D01*
X3070Y53D01*
X3069Y53D01*
X3068Y52D01*
X3067Y51D01*
X3066Y51D01*
X3065Y50D01*
X3064Y50D01*
X3063Y49D01*
X3062Y49D01*
X3061Y48D01*
X3060Y47D01*
X3059Y47D01*
X3058Y46D01*
X3057Y46D01*
X3056Y45D01*
X3055Y45D01*
X3054Y45D01*
X3053Y44D01*
X3052Y44D01*
X3051Y43D01*
X3050Y43D01*
X3049Y42D01*
X3048Y42D01*
X3047Y41D01*
X3046Y41D01*
X3045Y40D01*
X3044Y40D01*
X3043Y39D01*
X3042Y39D01*
X3041Y38D01*
X3040Y38D01*
X3039Y37D01*
X3038Y37D01*
X3037Y36D01*
X3036Y36D01*
X3035Y36D01*
X3034Y35D01*
X3033Y35D01*
X3032Y34D01*
X3031Y34D01*
X3030Y33D01*
X3029Y33D01*
X3028Y32D01*
X3027Y32D01*
X3026Y32D01*
X3025Y31D01*
X3024Y31D01*
X3023Y30D01*
X3022Y30D01*
X3021Y30D01*
X3020Y29D01*
X3019Y29D01*
X3018Y28D01*
X3017Y28D01*
X3016Y28D01*
X3015Y27D01*
X3014Y27D01*
X3013Y27D01*
X3012Y26D01*
X3011Y26D01*
X3010Y25D01*
X3009Y25D01*
X3008Y25D01*
X3007Y24D01*
X3006Y24D01*
X3005Y24D01*
X3004Y23D01*
X3003Y23D01*
X3002Y23D01*
X3001Y22D01*
X3000Y22D01*
X2999Y22D01*
X2998Y21D01*
X2997Y21D01*
X2996Y21D01*
X2995Y20D01*
X2994Y20D01*
X2993Y20D01*
X2992Y19D01*
X2991Y19D01*
X2990Y19D01*
X2989Y18D01*
X2988Y18D01*
X2987Y18D01*
X2986Y17D01*
X2985Y17D01*
X2984Y17D01*
X2983Y17D01*
X2982Y16D01*
X2981Y16D01*
X2980Y16D01*
X2979Y15D01*
X2978Y15D01*
X2977Y15D01*
X2976Y15D01*
X2975Y14D01*
X2974Y14D01*
X2973Y14D01*
X2972Y14D01*
X2971Y13D01*
X2970Y13D01*
X2969Y13D01*
X2968Y13D01*
X2967Y12D01*
X2966Y12D01*
X2965Y12D01*
X2964Y12D01*
X2963Y11D01*
X2962Y11D01*
X2961Y11D01*
X2960Y11D01*
X2959Y11D01*
X2958Y10D01*
X2957Y10D01*
X2956Y10D01*
X2955Y10D01*
X2954Y9D01*
X2953Y9D01*
X2952Y9D01*
X2951Y9D01*
X2950Y9D01*
X2949Y8D01*
X2948Y8D01*
X2947Y8D01*
X2946Y8D01*
X2945Y8D01*
X2944Y8D01*
X2943Y7D01*
X2942Y7D01*
X2941Y7D01*
X2940Y7D01*
X2939Y7D01*
X2938Y6D01*
X2937Y6D01*
X2936Y6D01*
X2935Y6D01*
X2934Y6D01*
X2933Y6D01*
X2932Y6D01*
X2931Y5D01*
X2930Y5D01*
X2929Y5D01*
X2928Y5D01*
X2927Y5D01*
X2926Y5D01*
X2925Y5D01*
X2924Y4D01*
X2923Y4D01*
X2922Y4D01*
X2921Y4D01*
X2920Y4D01*
X2919Y4D01*
X2918Y4D01*
X2917Y4D01*
X2916Y3D01*
X2915Y3D01*
X2914Y3D01*
X2913Y3D01*
X2912Y3D01*
X2911Y3D01*
X2910Y3D01*
X2909Y3D01*
X2908Y3D01*
X2907Y3D01*
X2906Y2D01*
X2905Y2D01*
X2904Y2D01*
X2903Y2D01*
X2902Y2D01*
X2901Y2D01*
X2900Y2D01*
X2899Y2D01*
X2898Y2D01*
X2897Y2D01*
X2896Y2D01*
X2895Y2D01*
X2894Y2D01*
X2893Y2D01*
X2892Y2D01*
X2891Y1D01*
X2890Y1D01*
X2889Y1D01*
X2888Y1D01*
X2887Y1D01*
X2886Y1D01*
X2885Y1D01*
X2884Y1D01*
X2883Y1D01*
X2882Y1D01*
X2881Y1D01*
X2880Y1D01*
X2879Y1D01*
X2878Y1D01*
X2877Y1D01*
X2876Y1D01*
X2875Y1D01*
X2874Y1D01*
X2873Y1D01*
X2872Y1D01*
X2871Y1D01*
X2870Y1D01*
X2869Y1D01*
X2868Y1D01*
X2867Y1D01*
X2866Y1D01*
X2865Y1D01*
X2864Y1D01*
X2863Y1D01*
X2862Y1D01*
X2861Y1D01*
X2860Y1D01*
X2859Y1D01*
X2858Y1D01*
X2857Y1D01*
X2856Y1D01*
X2855Y1D01*
X2854Y1D01*
X2853Y1D01*
X2852Y1D01*
X2851Y1D01*
X2850Y1D01*
X2849Y1D01*
X2848Y1D01*
X2847Y1D01*
X2846Y1D01*
X2845Y1D01*
X2844Y1D01*
X2843Y1D01*
X2842Y1D01*
X2841Y1D01*
X2840Y1D01*
X2839Y1D01*
X2838Y1D01*
X2837Y1D01*
X2836Y1D01*
X2835Y1D01*
X2834Y1D01*
X2833Y1D01*
X2832Y1D01*
X2831Y1D01*
X2830Y1D01*
X2829Y1D01*
X2828Y1D01*
X2827Y1D01*
X2826Y1D01*
X2825Y1D01*
X2824Y1D01*
X2823Y1D01*
X2822Y1D01*
X2821Y1D01*
X2820Y1D01*
X2819Y1D01*
X2818Y1D01*
X2817Y1D01*
X2816Y1D01*
X2815Y1D01*
X2814Y1D01*
X2813Y1D01*
X2812Y1D01*
X2811Y1D01*
X2810Y1D01*
X2809Y1D01*
X2808Y1D01*
X2807Y1D01*
X2806Y1D01*
X2805Y1D01*
X2804Y1D01*
X2803Y1D01*
X2802Y1D01*
X2801Y1D01*
X2800Y1D01*
X2799Y1D01*
X2798Y1D01*
X2797Y1D01*
X2796Y1D01*
X2795Y1D01*
X2794Y1D01*
X2793Y1D01*
X2792Y1D01*
X2791Y1D01*
X2790Y1D01*
X2789Y1D01*
X2788Y1D01*
X2787Y1D01*
X2786Y1D01*
X2785Y1D01*
X2784Y1D01*
X2783Y1D01*
X2782Y1D01*
X2781Y1D01*
X2780Y1D01*
X2779Y1D01*
X2778Y1D01*
X2777Y1D01*
X2776Y1D01*
X2775Y1D01*
X2774Y1D01*
X2773Y1D01*
X2772Y1D01*
X2771Y1D01*
X2770Y1D01*
X2769Y1D01*
X2768Y1D01*
X2767Y1D01*
X2766Y1D01*
X2765Y1D01*
X2764Y1D01*
X2763Y1D01*
X2762Y1D01*
X2761Y1D01*
X2760Y1D01*
X2759Y1D01*
X2758Y1D01*
X2757Y1D01*
X2756Y1D01*
X2755Y1D01*
X2754Y1D01*
X2753Y1D01*
X2752Y1D01*
X2751Y1D01*
X2750Y1D01*
X2749Y1D01*
X2748Y1D01*
X2747Y1D01*
X2746Y1D01*
X2745Y1D01*
X2744Y1D01*
X2743Y1D01*
X2742Y1D01*
X2741Y1D01*
X2740Y1D01*
X2739Y1D01*
X2738Y1D01*
X2737Y1D01*
X2736Y1D01*
X2735Y1D01*
X2734Y1D01*
X2733Y1D01*
X2732Y1D01*
X2731Y1D01*
X2730Y1D01*
X2729Y1D01*
X2728Y1D01*
X2727Y1D01*
X2726Y1D01*
X2725Y1D01*
X2724Y1D01*
X2723Y1D01*
X2722Y1D01*
X2721Y1D01*
X2720Y1D01*
X2719Y1D01*
X2718Y1D01*
X2717Y1D01*
X2716Y1D01*
X2715Y1D01*
X2714Y1D01*
X2713Y1D01*
X2712Y1D01*
X2711Y1D01*
X2710Y1D01*
X2709Y1D01*
X2708Y1D01*
X2707Y1D01*
X2706Y1D01*
X2705Y1D01*
X2704Y1D01*
X2703Y1D01*
X2702Y1D01*
X2701Y1D01*
X2700Y1D01*
X2699Y1D01*
X2698Y1D01*
X2697Y1D01*
X2696Y1D01*
X2695Y1D01*
X2694Y1D01*
X2693Y1D01*
X2692Y1D01*
X2691Y1D01*
X2690Y1D01*
X2689Y1D01*
X2688Y1D01*
X2687Y1D01*
X2686Y1D01*
X2685Y1D01*
X2684Y1D01*
X2683Y1D01*
X2682Y1D01*
X2681Y1D01*
X2680Y1D01*
X2679Y1D01*
X2678Y1D01*
X2677Y1D01*
X2676Y1D01*
X2675Y1D01*
X2674Y1D01*
X2673Y1D01*
X2672Y1D01*
X2671Y1D01*
X2670Y1D01*
X2669Y1D01*
X2668Y1D01*
X2667Y1D01*
X2666Y1D01*
X2665Y1D01*
X2664Y1D01*
X2663Y1D01*
X2662Y1D01*
X2661Y1D01*
X2660Y1D01*
X2659Y1D01*
X2658Y1D01*
X2657Y1D01*
X2656Y1D01*
X2655Y1D01*
X2654Y1D01*
X2653Y1D01*
X2652Y1D01*
X2651Y1D01*
X2650Y1D01*
X2649Y1D01*
X2648Y1D01*
X2647Y1D01*
X2646Y1D01*
X2645Y1D01*
X2644Y1D01*
X2643Y1D01*
X2642Y1D01*
X2641Y1D01*
X2640Y1D01*
X2639Y1D01*
X2638Y1D01*
X2637Y1D01*
X2636Y1D01*
X2635Y1D01*
X2634Y1D01*
X2633Y1D01*
X2632Y1D01*
X2631Y1D01*
X2630Y1D01*
X2629Y1D01*
X2628Y1D01*
X2627Y1D01*
X2626Y1D01*
X2625Y1D01*
X2624Y1D01*
X2623Y1D01*
X2622Y1D01*
X2621Y1D01*
X2620Y1D01*
X2619Y1D01*
X2618Y1D01*
X2617Y1D01*
X2616Y1D01*
X2615Y1D01*
X2614Y1D01*
X2613Y1D01*
X2612Y1D01*
X2611Y1D01*
X2610Y1D01*
X2609Y1D01*
X2608Y1D01*
X2607Y1D01*
X2606Y1D01*
X2605Y1D01*
X2604Y1D01*
X2603Y1D01*
X2602Y1D01*
X2601Y1D01*
X2600Y1D01*
X2599Y1D01*
X2598Y1D01*
X2597Y1D01*
X2596Y1D01*
X2595Y1D01*
X2594Y1D01*
X2593Y1D01*
X2592Y1D01*
X2591Y1D01*
X2590Y1D01*
X2589Y1D01*
X2588Y1D01*
X2587Y1D01*
X2586Y1D01*
X2585Y1D01*
X2584Y1D01*
X2583Y1D01*
X2582Y1D01*
X2581Y1D01*
X2580Y1D01*
X2579Y1D01*
X2578Y1D01*
X2577Y1D01*
X2576Y1D01*
X2575Y1D01*
X2574Y1D01*
X2573Y1D01*
X2572Y1D01*
X2571Y1D01*
X2570Y1D01*
X2569Y1D01*
X2568Y1D01*
X2567Y1D01*
X2566Y1D01*
X2565Y1D01*
X2564Y1D01*
X2563Y1D01*
X2562Y1D01*
X2561Y1D01*
X2560Y1D01*
X2559Y1D01*
X2558Y1D01*
X2557Y1D01*
X2556Y1D01*
X2555Y1D01*
X2554Y1D01*
X2553Y1D01*
X2552Y1D01*
X2551Y1D01*
X2550Y1D01*
X2549Y1D01*
X2548Y1D01*
X2547Y1D01*
X2546Y1D01*
X2545Y1D01*
X2544Y1D01*
X2543Y1D01*
X2542Y1D01*
X2541Y1D01*
X2540Y1D01*
X2539Y1D01*
X2538Y1D01*
X2537Y1D01*
X2536Y1D01*
X2535Y1D01*
X2534Y1D01*
X2533Y1D01*
X2532Y1D01*
X2531Y1D01*
X2530Y1D01*
X2529Y1D01*
X2528Y1D01*
X2527Y1D01*
X2526Y1D01*
X2525Y1D01*
X2524Y1D01*
X2523Y1D01*
X2522Y1D01*
X2521Y1D01*
X2520Y1D01*
X2519Y1D01*
X2518Y1D01*
X2517Y1D01*
X2516Y1D01*
X2515Y1D01*
X2514Y1D01*
X2513Y1D01*
X2512Y1D01*
X2511Y1D01*
X2510Y1D01*
X2509Y1D01*
X2508Y1D01*
X2507Y1D01*
X2506Y1D01*
X2505Y1D01*
X2504Y1D01*
X2503Y1D01*
X2502Y1D01*
X2501Y1D01*
X2500Y1D01*
X2499Y1D01*
X2498Y1D01*
X2497Y1D01*
X2496Y1D01*
X2495Y1D01*
X2494Y1D01*
X2493Y1D01*
X2492Y1D01*
X2491Y1D01*
X2490Y1D01*
X2489Y1D01*
X2488Y1D01*
X2487Y1D01*
X2486Y1D01*
X2485Y1D01*
X2484Y1D01*
X2483Y1D01*
X2482Y1D01*
X2481Y1D01*
X2480Y1D01*
X2479Y1D01*
X2478Y1D01*
X2477Y1D01*
X2476Y1D01*
X2475Y1D01*
X2474Y1D01*
X2473Y1D01*
X2472Y1D01*
X2471Y1D01*
X2470Y1D01*
X2469Y1D01*
X2468Y1D01*
X2467Y1D01*
X2466Y1D01*
X2465Y1D01*
X2464Y1D01*
X2463Y1D01*
X2462Y1D01*
X2461Y1D01*
X2460Y1D01*
X2459Y1D01*
X2458Y1D01*
X2457Y1D01*
X2456Y1D01*
X2455Y1D01*
X2454Y1D01*
X2453Y1D01*
X2452Y1D01*
X2451Y1D01*
X2450Y1D01*
X2449Y1D01*
X2448Y1D01*
X2447Y1D01*
X2446Y1D01*
X2445Y1D01*
X2444Y1D01*
X2443Y1D01*
X2442Y1D01*
X2441Y1D01*
X2440Y1D01*
X2439Y1D01*
X2438Y1D01*
X2437Y1D01*
X2436Y1D01*
X2435Y1D01*
X2434Y1D01*
X2433Y1D01*
X2432Y1D01*
X2431Y1D01*
X2430Y1D01*
X2429Y1D01*
X2428Y1D01*
X2427Y1D01*
X2426Y1D01*
X2425Y1D01*
X2424Y1D01*
X2423Y1D01*
X2422Y1D01*
X2421Y1D01*
X2420Y1D01*
X2419Y1D01*
X2418Y1D01*
X2417Y1D01*
X2416Y1D01*
X2415Y1D01*
X2414Y1D01*
X2413Y1D01*
X2412Y1D01*
X2411Y1D01*
X2410Y1D01*
X2409Y1D01*
X2408Y1D01*
X2407Y1D01*
X2406Y1D01*
X2405Y1D01*
X2404Y1D01*
X2403Y1D01*
X2402Y1D01*
X2401Y1D01*
X2400Y1D01*
X2399Y1D01*
X2398Y1D01*
X2397Y1D01*
X2396Y1D01*
X2395Y1D01*
X2394Y1D01*
X2393Y1D01*
X2392Y1D01*
X2391Y1D01*
X2390Y1D01*
X2389Y1D01*
X2388Y1D01*
X2387Y1D01*
X2386Y1D01*
X2385Y1D01*
X2384Y1D01*
X2383Y1D01*
X2382Y1D01*
X2381Y1D01*
X2380Y1D01*
X2379Y1D01*
X2378Y1D01*
X2377Y1D01*
X2376Y1D01*
X2375Y1D01*
X2374Y1D01*
X2373Y1D01*
X2372Y1D01*
X2371Y1D01*
X2370Y1D01*
X2369Y1D01*
X2368Y1D01*
X2367Y1D01*
X2366Y1D01*
X2365Y1D01*
X2364Y1D01*
X2363Y1D01*
X2362Y1D01*
X2361Y1D01*
X2360Y1D01*
X2359Y1D01*
X2358Y1D01*
X2357Y1D01*
X2356Y1D01*
X2355Y1D01*
X2354Y1D01*
X2353Y1D01*
X2352Y1D01*
X2351Y1D01*
X2350Y1D01*
X2349Y1D01*
X2348Y1D01*
X2347Y1D01*
X2346Y1D01*
X2345Y1D01*
X2344Y1D01*
X2343Y1D01*
X2342Y1D01*
X2341Y1D01*
X2340Y1D01*
X2339Y1D01*
X2338Y1D01*
X2337Y1D01*
X2336Y1D01*
X2335Y1D01*
X2334Y1D01*
X2333Y1D01*
X2332Y1D01*
X2331Y1D01*
X2330Y1D01*
X2329Y1D01*
X2328Y1D01*
X2327Y1D01*
X2326Y1D01*
X2325Y1D01*
X2324Y1D01*
X2323Y1D01*
X2322Y1D01*
X2321Y1D01*
X2320Y1D01*
X2319Y1D01*
X2318Y1D01*
X2317Y1D01*
X2316Y1D01*
X2315Y1D01*
X2314Y1D01*
X2313Y1D01*
X2312Y1D01*
X2311Y1D01*
X2310Y1D01*
X2309Y1D01*
X2308Y1D01*
X2307Y1D01*
X2306Y1D01*
X2305Y1D01*
X2304Y1D01*
X2303Y1D01*
X2302Y1D01*
X2301Y1D01*
X2300Y1D01*
X2299Y1D01*
X2298Y1D01*
X2297Y1D01*
X2296Y1D01*
X2295Y1D01*
X2294Y1D01*
X2293Y1D01*
X2292Y1D01*
X2291Y1D01*
X2290Y1D01*
X2289Y1D01*
X2288Y1D01*
X2287Y1D01*
X2286Y1D01*
X2285Y1D01*
X2284Y1D01*
X2283Y1D01*
X2282Y1D01*
X2281Y1D01*
X2280Y1D01*
X2279Y1D01*
X2278Y1D01*
X2277Y1D01*
X2276Y1D01*
X2275Y1D01*
X2274Y1D01*
X2273Y1D01*
X2272Y1D01*
X2271Y1D01*
X2270Y1D01*
X2269Y1D01*
X2268Y1D01*
X2267Y1D01*
X2266Y1D01*
X2265Y1D01*
X2264Y1D01*
X2263Y1D01*
X2262Y1D01*
X2261Y1D01*
X2260Y1D01*
X2259Y1D01*
X2258Y1D01*
X2257Y1D01*
X2256Y1D01*
X2255Y1D01*
X2254Y1D01*
X2253Y1D01*
X2252Y1D01*
X2251Y1D01*
X2250Y1D01*
X2249Y1D01*
X2248Y1D01*
X2247Y1D01*
X2246Y1D01*
X2245Y1D01*
X2244Y1D01*
X2243Y1D01*
X2242Y1D01*
X2241Y1D01*
X2240Y1D01*
X2239Y1D01*
X2238Y1D01*
X2237Y1D01*
X2236Y1D01*
X2235Y1D01*
X2234Y1D01*
X2233Y1D01*
X2232Y1D01*
X2231Y1D01*
X2230Y1D01*
X2229Y1D01*
X2228Y1D01*
X2227Y1D01*
X2226Y1D01*
X2225Y1D01*
X2224Y1D01*
X2223Y1D01*
X2222Y1D01*
X2221Y1D01*
X2220Y1D01*
X2219Y1D01*
X2218Y1D01*
X2217Y1D01*
X2216Y1D01*
X2215Y1D01*
X2214Y1D01*
X2213Y1D01*
X2212Y1D01*
X2211Y1D01*
X2210Y1D01*
X2209Y1D01*
X2208Y1D01*
X2207Y1D01*
X2206Y1D01*
X2205Y1D01*
X2204Y1D01*
X2203Y1D01*
X2202Y1D01*
X2201Y1D01*
X2200Y1D01*
X2199Y1D01*
X2198Y1D01*
X2197Y1D01*
X2196Y1D01*
X2195Y1D01*
X2194Y1D01*
X2193Y1D01*
X2192Y1D01*
X2191Y1D01*
X2190Y1D01*
X2189Y1D01*
X2188Y1D01*
X2187Y1D01*
X2186Y1D01*
X2185Y1D01*
X2184Y1D01*
X2183Y1D01*
X2182Y1D01*
X2181Y1D01*
X2180Y1D01*
X2179Y1D01*
X2178Y1D01*
X2177Y1D01*
X2176Y1D01*
X2175Y1D01*
X2174Y1D01*
X2173Y1D01*
X2172Y1D01*
X2171Y1D01*
X2170Y1D01*
X2169Y1D01*
X2168Y1D01*
X2167Y1D01*
X2166Y1D01*
X2165Y1D01*
X2164Y1D01*
X2163Y1D01*
X2162Y1D01*
X2161Y1D01*
X2160Y1D01*
X2159Y1D01*
X2158Y1D01*
X2157Y1D01*
X2156Y1D01*
X2155Y1D01*
X2154Y1D01*
X2153Y1D01*
X2152Y1D01*
X2151Y1D01*
X2150Y1D01*
X2149Y1D01*
X2148Y1D01*
X2147Y1D01*
X2146Y1D01*
X2145Y1D01*
X2144Y1D01*
X2143Y1D01*
X2142Y1D01*
X2141Y1D01*
X2140Y1D01*
X2139Y1D01*
X2138Y1D01*
X2137Y1D01*
X2136Y1D01*
X2135Y1D01*
X2134Y1D01*
X2133Y1D01*
X2132Y1D01*
X2131Y1D01*
X2130Y1D01*
X2129Y1D01*
X2128Y1D01*
X2127Y1D01*
X2126Y1D01*
X2125Y1D01*
X2124Y1D01*
X2123Y1D01*
X2122Y1D01*
X2121Y1D01*
X2120Y1D01*
X2119Y1D01*
X2118Y1D01*
X2117Y1D01*
X2116Y1D01*
X2115Y1D01*
X2114Y1D01*
X2113Y1D01*
X2112Y1D01*
X2111Y1D01*
X2110Y1D01*
X2109Y1D01*
X2108Y1D01*
X2107Y1D01*
X2106Y1D01*
X2105Y1D01*
X2104Y1D01*
X2103Y1D01*
X2102Y1D01*
X2101Y1D01*
X2100Y1D01*
X2099Y1D01*
X2098Y1D01*
X2097Y1D01*
X2096Y1D01*
X2095Y1D01*
X2094Y1D01*
X2093Y1D01*
X2092Y1D01*
X2091Y1D01*
X2090Y1D01*
X2089Y1D01*
X2088Y1D01*
X2087Y1D01*
X2086Y1D01*
X2085Y1D01*
X2084Y1D01*
X2083Y1D01*
X2082Y1D01*
X2081Y1D01*
X2080Y1D01*
X2079Y1D01*
X2078Y1D01*
X2077Y1D01*
X2076Y1D01*
X2075Y1D01*
X2074Y1D01*
X2073Y1D01*
X2072Y1D01*
X2071Y1D01*
X2070Y1D01*
X2069Y1D01*
X2068Y1D01*
X2067Y1D01*
X2066Y1D01*
X2065Y1D01*
X2064Y1D01*
X2063Y1D01*
X2062Y1D01*
X2061Y1D01*
X2060Y1D01*
X2059Y1D01*
X2058Y1D01*
X2057Y1D01*
X2056Y1D01*
X2055Y1D01*
X2054Y1D01*
X2053Y1D01*
X2052Y1D01*
X2051Y1D01*
X2050Y1D01*
X2049Y1D01*
X2048Y1D01*
X2047Y1D01*
X2046Y1D01*
X2045Y1D01*
X2044Y1D01*
X2043Y1D01*
X2042Y1D01*
X2041Y1D01*
X2040Y1D01*
X2039Y1D01*
X2038Y1D01*
X2037Y1D01*
X2036Y1D01*
X2035Y1D01*
X2034Y1D01*
X2033Y1D01*
X2032Y1D01*
X2031Y1D01*
X2030Y1D01*
X2029Y1D01*
X2028Y1D01*
X2027Y1D01*
X2026Y1D01*
X2025Y1D01*
X2024Y1D01*
X2023Y1D01*
X2022Y1D01*
X2021Y1D01*
X2020Y1D01*
X2019Y1D01*
X2018Y1D01*
X2017Y1D01*
X2016Y1D01*
X2015Y1D01*
X2014Y1D01*
X2013Y1D01*
X2012Y1D01*
X2011Y1D01*
X2010Y1D01*
X2009Y1D01*
X2008Y1D01*
X2007Y1D01*
X2006Y1D01*
X2005Y1D01*
X2004Y1D01*
X2003Y1D01*
X2002Y1D01*
X2001Y1D01*
X2000Y1D01*
X1999Y1D01*
X1998Y1D01*
X1997Y1D01*
X1996Y1D01*
X1995Y1D01*
X1994Y1D01*
X1993Y1D01*
X1992Y1D01*
X1991Y1D01*
X1990Y1D01*
X1989Y1D01*
X1988Y1D01*
X1987Y1D01*
X1986Y1D01*
X1985Y1D01*
X1984Y1D01*
X1983Y1D01*
X1982Y1D01*
X1981Y1D01*
X1980Y1D01*
X1979Y1D01*
X1978Y1D01*
X1977Y1D01*
X1976Y1D01*
X1975Y1D01*
X1974Y1D01*
X1973Y1D01*
X1972Y1D01*
X1971Y1D01*
X1970Y1D01*
X1969Y1D01*
X1968Y1D01*
X1967Y1D01*
X1966Y1D01*
X1965Y1D01*
X1964Y1D01*
X1963Y1D01*
X1962Y1D01*
X1961Y1D01*
X1960Y1D01*
X1959Y1D01*
X1958Y1D01*
X1957Y1D01*
X1956Y1D01*
X1955Y1D01*
X1954Y1D01*
X1953Y1D01*
X1952Y1D01*
X1951Y1D01*
X1950Y1D01*
X1949Y1D01*
X1948Y1D01*
X1947Y1D01*
X1946Y1D01*
X1945Y1D01*
X1944Y1D01*
X1943Y1D01*
X1942Y1D01*
X1941Y1D01*
X1940Y1D01*
X1939Y1D01*
X1938Y1D01*
X1937Y1D01*
X1936Y1D01*
X1935Y1D01*
X1934Y1D01*
X1933Y1D01*
X1932Y1D01*
X1931Y1D01*
X1930Y1D01*
X1929Y1D01*
X1928Y1D01*
X1927Y1D01*
X1926Y1D01*
X1925Y1D01*
X1924Y1D01*
X1923Y1D01*
X1922Y1D01*
X1921Y1D01*
X1920Y1D01*
X1919Y1D01*
X1918Y1D01*
X1917Y1D01*
X1916Y1D01*
X1915Y1D01*
X1914Y1D01*
X1913Y1D01*
X1912Y1D01*
X1911Y1D01*
X1910Y1D01*
X1909Y1D01*
X1908Y1D01*
X1907Y1D01*
X1906Y1D01*
X1905Y1D01*
X1904Y1D01*
X1903Y1D01*
X1902Y1D01*
X1901Y1D01*
X1900Y1D01*
X1899Y1D01*
X1898Y1D01*
X1897Y1D01*
X1896Y1D01*
X1895Y1D01*
X1894Y1D01*
X1893Y1D01*
X1892Y1D01*
X1891Y1D01*
X1890Y1D01*
X1889Y1D01*
X1888Y1D01*
X1887Y1D01*
X1886Y1D01*
X1885Y1D01*
X1884Y1D01*
X1883Y1D01*
X1882Y1D01*
X1881Y1D01*
X1880Y1D01*
X1879Y1D01*
X1878Y1D01*
X1877Y1D01*
X1876Y1D01*
X1875Y1D01*
X1874Y1D01*
X1873Y1D01*
X1872Y1D01*
X1871Y1D01*
X1870Y1D01*
X1869Y1D01*
X1868Y1D01*
X1867Y1D01*
X1866Y1D01*
X1865Y1D01*
X1864Y1D01*
X1863Y1D01*
X1862Y1D01*
X1861Y1D01*
X1860Y1D01*
X1859Y1D01*
X1858Y1D01*
X1857Y1D01*
X1856Y1D01*
X1855Y1D01*
X1854Y1D01*
X1853Y1D01*
X1852Y1D01*
X1851Y1D01*
X1850Y1D01*
X1849Y1D01*
X1848Y1D01*
X1847Y1D01*
X1846Y1D01*
X1845Y1D01*
X1844Y1D01*
X1843Y1D01*
X1842Y1D01*
X1841Y1D01*
X1840Y1D01*
X1839Y1D01*
X1838Y1D01*
X1837Y1D01*
X1836Y1D01*
X1835Y1D01*
X1834Y1D01*
X1833Y1D01*
X1832Y1D01*
X1831Y1D01*
X1830Y1D01*
X1829Y1D01*
X1828Y1D01*
X1827Y1D01*
X1826Y1D01*
X1825Y1D01*
X1824Y1D01*
X1823Y1D01*
X1822Y1D01*
X1821Y1D01*
X1820Y1D01*
X1819Y1D01*
X1818Y1D01*
X1817Y1D01*
X1816Y1D01*
X1815Y1D01*
X1814Y1D01*
X1813Y1D01*
X1812Y1D01*
X1811Y1D01*
X1810Y1D01*
X1809Y1D01*
X1808Y1D01*
X1807Y1D01*
X1806Y1D01*
X1805Y1D01*
X1804Y1D01*
X1803Y1D01*
X1802Y1D01*
X1801Y1D01*
X1800Y1D01*
X1799Y1D01*
X1798Y1D01*
X1797Y1D01*
X1796Y1D01*
X1795Y1D01*
X1794Y1D01*
X1793Y1D01*
X1792Y1D01*
X1791Y1D01*
X1790Y1D01*
X1789Y1D01*
X1788Y1D01*
X1787Y1D01*
X1786Y1D01*
X1785Y1D01*
X1784Y1D01*
X1783Y1D01*
X1782Y1D01*
X1781Y1D01*
X1780Y1D01*
X1779Y1D01*
X1778Y1D01*
X1777Y1D01*
X1776Y1D01*
X1775Y1D01*
X1774Y1D01*
X1773Y1D01*
X1772Y1D01*
X1771Y1D01*
X1770Y1D01*
X1769Y1D01*
X1768Y1D01*
X1767Y1D01*
X1766Y1D01*
X1765Y1D01*
X1764Y1D01*
X1763Y1D01*
X1762Y1D01*
X1761Y1D01*
X1760Y1D01*
X1759Y1D01*
X1758Y1D01*
X1757Y1D01*
X1756Y1D01*
X1755Y1D01*
X1754Y1D01*
X1753Y1D01*
X1752Y1D01*
X1751Y1D01*
X1750Y1D01*
X1749Y1D01*
X1748Y1D01*
X1747Y1D01*
X1746Y1D01*
X1745Y1D01*
X1744Y1D01*
X1743Y1D01*
X1742Y1D01*
X1741Y1D01*
X1740Y1D01*
X1739Y1D01*
X1738Y1D01*
X1737Y1D01*
X1736Y1D01*
X1735Y1D01*
X1734Y1D01*
X1733Y1D01*
X1732Y1D01*
X1731Y1D01*
X1730Y1D01*
X1729Y1D01*
X1728Y1D01*
X1727Y1D01*
X1726Y1D01*
X1725Y1D01*
X1724Y1D01*
X1723Y1D01*
X1722Y1D01*
X1721Y1D01*
X1720Y1D01*
X1719Y1D01*
X1718Y1D01*
X1717Y1D01*
X1716Y1D01*
X1715Y1D01*
X1714Y1D01*
X1713Y1D01*
X1712Y1D01*
X1711Y1D01*
X1710Y1D01*
X1709Y1D01*
X1708Y1D01*
X1707Y1D01*
X1706Y1D01*
X1705Y1D01*
X1704Y1D01*
X1703Y1D01*
X1702Y1D01*
X1701Y1D01*
X1700Y1D01*
X1699Y1D01*
X1698Y1D01*
X1697Y1D01*
X1696Y1D01*
X1695Y1D01*
X1694Y1D01*
X1693Y1D01*
X1692Y1D01*
X1691Y1D01*
X1690Y1D01*
X1689Y1D01*
X1688Y1D01*
X1687Y1D01*
X1686Y1D01*
X1685Y1D01*
X1684Y1D01*
X1683Y1D01*
X1682Y1D01*
X1681Y1D01*
X1680Y1D01*
X1679Y1D01*
X1678Y1D01*
X1677Y1D01*
X1676Y1D01*
X1675Y1D01*
X1674Y1D01*
X1673Y1D01*
X1672Y1D01*
X1671Y1D01*
X1670Y1D01*
X1669Y1D01*
X1668Y1D01*
X1667Y1D01*
X1666Y1D01*
X1665Y1D01*
X1664Y1D01*
X1663Y1D01*
X1662Y1D01*
X1661Y1D01*
X1660Y1D01*
X1659Y1D01*
X1658Y1D01*
X1657Y1D01*
X1656Y1D01*
X1655Y1D01*
X1654Y1D01*
X1653Y1D01*
X1652Y1D01*
X1651Y1D01*
X1650Y1D01*
X1649Y1D01*
X1648Y1D01*
X1647Y1D01*
X1646Y1D01*
X1645Y1D01*
X1644Y1D01*
X1643Y1D01*
X1642Y1D01*
X1641Y1D01*
X1640Y1D01*
X1639Y1D01*
X1638Y1D01*
X1637Y1D01*
X1636Y1D01*
X1635Y1D01*
X1634Y1D01*
X1633Y1D01*
X1632Y1D01*
X1631Y1D01*
X1630Y1D01*
X1629Y1D01*
X1628Y1D01*
X1627Y1D01*
X1626Y1D01*
X1625Y1D01*
X1624Y1D01*
X1623Y1D01*
X1622Y1D01*
X1621Y1D01*
X1620Y1D01*
X1619Y1D01*
X1618Y1D01*
X1617Y1D01*
X1616Y1D01*
X1615Y1D01*
X1614Y1D01*
X1613Y1D01*
X1612Y1D01*
X1611Y1D01*
X1610Y1D01*
X1609Y1D01*
X1608Y1D01*
X1607Y1D01*
X1606Y1D01*
X1605Y1D01*
X1604Y1D01*
X1603Y1D01*
X1602Y1D01*
X1601Y1D01*
X1600Y1D01*
X1599Y1D01*
X1598Y1D01*
X1597Y1D01*
X1596Y1D01*
X1595Y1D01*
X1594Y1D01*
X1593Y1D01*
X1592Y1D01*
X1591Y1D01*
X1590Y1D01*
X1589Y1D01*
X1588Y1D01*
X1587Y1D01*
X1586Y1D01*
X1585Y1D01*
X1584Y1D01*
X1583Y1D01*
X1582Y1D01*
X1581Y1D01*
X1580Y1D01*
X1579Y1D01*
X1578Y1D01*
X1577Y1D01*
X1576Y1D01*
X1575Y1D01*
X1574Y1D01*
X1573Y1D01*
X1572Y1D01*
X1571Y1D01*
X1570Y1D01*
X1569Y1D01*
X1568Y1D01*
X1567Y1D01*
X1566Y1D01*
X1565Y1D01*
X1564Y1D01*
X1563Y1D01*
X1562Y1D01*
X1561Y1D01*
X1560Y1D01*
X1559Y1D01*
X1558Y1D01*
X1557Y1D01*
X1556Y1D01*
X1555Y1D01*
X1554Y1D01*
X1553Y1D01*
X1552Y1D01*
X1551Y1D01*
X1550Y1D01*
X1549Y1D01*
X1548Y1D01*
X1547Y1D01*
X1546Y1D01*
X1545Y1D01*
X1544Y1D01*
X1543Y1D01*
X1542Y1D01*
X1541Y1D01*
X1540Y1D01*
X1539Y1D01*
X1538Y1D01*
X1537Y1D01*
X1536Y1D01*
X1535Y1D01*
X1534Y1D01*
X1533Y1D01*
X1532Y1D01*
X1531Y1D01*
X1530Y1D01*
X1529Y1D01*
X1528Y1D01*
X1527Y1D01*
X1526Y1D01*
X1525Y1D01*
X1524Y1D01*
X1523Y1D01*
X1522Y1D01*
X1521Y1D01*
X1520Y1D01*
X1519Y1D01*
X1518Y1D01*
X1517Y1D01*
X1516Y1D01*
X1515Y1D01*
X1514Y1D01*
X1513Y1D01*
X1512Y1D01*
X1511Y1D01*
X1510Y1D01*
X1509Y1D01*
X1508Y1D01*
X1507Y1D01*
X1506Y1D01*
X1505Y1D01*
X1504Y1D01*
X1503Y1D01*
X1502Y1D01*
X1501Y1D01*
X1500Y1D01*
X1499Y1D01*
X1498Y1D01*
X1497Y1D01*
X1496Y1D01*
X1495Y1D01*
X1494Y1D01*
X1493Y1D01*
X1492Y1D01*
X1491Y1D01*
X1490Y1D01*
X1489Y1D01*
X1488Y1D01*
X1487Y1D01*
X1486Y1D01*
X1485Y1D01*
X1484Y1D01*
X1483Y1D01*
X1482Y1D01*
X1481Y1D01*
X1480Y1D01*
X1479Y1D01*
X1478Y1D01*
X1477Y1D01*
X1476Y1D01*
X1475Y1D01*
X1474Y1D01*
X1473Y1D01*
X1472Y1D01*
X1471Y1D01*
X1470Y1D01*
X1469Y1D01*
X1468Y1D01*
X1467Y1D01*
X1466Y1D01*
X1465Y1D01*
X1464Y1D01*
X1463Y1D01*
X1462Y1D01*
X1461Y1D01*
X1460Y1D01*
X1459Y1D01*
X1458Y1D01*
X1457Y1D01*
X1456Y1D01*
X1455Y1D01*
X1454Y1D01*
X1453Y1D01*
X1452Y1D01*
X1451Y1D01*
X1450Y1D01*
X1449Y1D01*
X1448Y1D01*
X1447Y1D01*
X1446Y1D01*
X1445Y1D01*
X1444Y1D01*
X1443Y1D01*
X1442Y1D01*
X1441Y1D01*
X1440Y1D01*
X1439Y1D01*
X1438Y1D01*
X1437Y1D01*
X1436Y1D01*
X1435Y1D01*
X1434Y1D01*
X1433Y1D01*
X1432Y1D01*
X1431Y1D01*
X1430Y1D01*
X1429Y1D01*
X1428Y1D01*
X1427Y1D01*
X1426Y1D01*
X1425Y1D01*
X1424Y1D01*
X1423Y1D01*
X1422Y1D01*
X1421Y1D01*
X1420Y1D01*
X1419Y1D01*
X1418Y1D01*
X1417Y1D01*
X1416Y1D01*
X1415Y1D01*
X1414Y1D01*
X1413Y1D01*
X1412Y1D01*
X1411Y1D01*
X1410Y1D01*
X1409Y1D01*
X1408Y1D01*
X1407Y1D01*
X1406Y1D01*
X1405Y1D01*
X1404Y1D01*
X1403Y1D01*
X1402Y1D01*
X1401Y1D01*
X1400Y1D01*
X1399Y1D01*
X1398Y1D01*
X1397Y1D01*
X1396Y1D01*
X1395Y1D01*
X1394Y1D01*
X1393Y1D01*
X1392Y1D01*
X1391Y1D01*
X1390Y1D01*
X1389Y1D01*
X1388Y1D01*
X1387Y1D01*
X1386Y1D01*
X1385Y1D01*
X1384Y1D01*
X1383Y1D01*
X1382Y1D01*
X1381Y1D01*
X1380Y1D01*
X1379Y1D01*
X1378Y1D01*
X1377Y1D01*
X1376Y1D01*
X1375Y1D01*
X1374Y1D01*
X1373Y1D01*
X1372Y1D01*
X1371Y1D01*
X1370Y1D01*
X1369Y1D01*
X1368Y1D01*
X1367Y1D01*
X1366Y1D01*
X1365Y1D01*
X1364Y1D01*
X1363Y1D01*
X1362Y1D01*
X1361Y1D01*
X1360Y1D01*
X1359Y1D01*
X1358Y1D01*
X1357Y1D01*
X1356Y1D01*
X1355Y1D01*
X1354Y1D01*
X1353Y1D01*
X1352Y1D01*
X1351Y1D01*
X1350Y1D01*
X1349Y1D01*
X1348Y1D01*
X1347Y1D01*
X1346Y1D01*
X1345Y1D01*
X1344Y1D01*
X1343Y1D01*
X1342Y1D01*
X1341Y1D01*
X1340Y1D01*
X1339Y1D01*
X1338Y1D01*
X1337Y1D01*
X1336Y1D01*
X1335Y1D01*
X1334Y1D01*
X1333Y1D01*
X1332Y1D01*
X1331Y1D01*
X1330Y1D01*
X1329Y1D01*
X1328Y1D01*
X1327Y1D01*
X1326Y1D01*
X1325Y1D01*
X1324Y1D01*
X1323Y1D01*
X1322Y1D01*
X1321Y1D01*
X1320Y1D01*
X1319Y1D01*
X1318Y1D01*
X1317Y1D01*
X1316Y1D01*
X1315Y1D01*
X1314Y1D01*
X1313Y1D01*
X1312Y1D01*
X1311Y1D01*
X1310Y1D01*
X1309Y1D01*
X1308Y1D01*
X1307Y1D01*
X1306Y1D01*
X1305Y1D01*
X1304Y1D01*
X1303Y1D01*
X1302Y1D01*
X1301Y1D01*
X1300Y1D01*
X1299Y1D01*
X1298Y1D01*
X1297Y1D01*
X1296Y1D01*
X1295Y1D01*
X1294Y1D01*
X1293Y1D01*
X1292Y1D01*
X1291Y1D01*
X1290Y1D01*
X1289Y1D01*
X1288Y1D01*
X1287Y1D01*
X1286Y1D01*
X1285Y1D01*
X1284Y1D01*
X1283Y1D01*
X1282Y1D01*
X1281Y1D01*
X1280Y1D01*
X1279Y1D01*
X1278Y1D01*
X1277Y1D01*
X1276Y1D01*
X1275Y1D01*
X1274Y1D01*
X1273Y1D01*
X1272Y1D01*
X1271Y1D01*
X1270Y1D01*
X1269Y1D01*
X1268Y1D01*
X1267Y1D01*
X1266Y1D01*
X1265Y1D01*
X1264Y1D01*
X1263Y1D01*
X1262Y1D01*
X1261Y1D01*
X1260Y1D01*
X1259Y1D01*
X1258Y1D01*
X1257Y1D01*
X1256Y1D01*
X1255Y1D01*
X1254Y1D01*
X1253Y1D01*
X1252Y1D01*
X1251Y1D01*
X1250Y1D01*
X1249Y1D01*
X1248Y1D01*
X1247Y1D01*
X1246Y1D01*
X1245Y1D01*
X1244Y1D01*
X1243Y1D01*
X1242Y1D01*
X1241Y1D01*
X1240Y1D01*
X1239Y1D01*
X1238Y1D01*
X1237Y1D01*
X1236Y1D01*
X1235Y1D01*
X1234Y1D01*
X1233Y1D01*
X1232Y1D01*
X1231Y1D01*
X1230Y1D01*
X1229Y1D01*
X1228Y1D01*
X1227Y1D01*
X1226Y1D01*
X1225Y1D01*
X1224Y1D01*
X1223Y1D01*
X1222Y1D01*
X1221Y1D01*
X1220Y1D01*
X1219Y1D01*
X1218Y1D01*
X1217Y1D01*
X1216Y1D01*
X1215Y1D01*
X1214Y1D01*
X1213Y1D01*
X1212Y1D01*
X1211Y1D01*
X1210Y1D01*
X1209Y1D01*
X1208Y1D01*
X1207Y1D01*
X1206Y1D01*
X1205Y1D01*
X1204Y1D01*
X1203Y1D01*
X1202Y1D01*
X1201Y1D01*
X1200Y1D01*
X1199Y1D01*
X1198Y1D01*
X1197Y1D01*
X1196Y1D01*
X1195Y1D01*
X1194Y1D01*
X1193Y1D01*
X1192Y1D01*
X1191Y1D01*
X1190Y1D01*
X1189Y1D01*
X1188Y1D01*
X1187Y1D01*
X1186Y1D01*
X1185Y1D01*
X1184Y1D01*
X1183Y1D01*
X1182Y1D01*
X1181Y1D01*
X1180Y1D01*
X1179Y1D01*
X1178Y1D01*
X1177Y1D01*
X1176Y1D01*
X1175Y1D01*
X1174Y1D01*
X1173Y1D01*
X1172Y1D01*
X1171Y1D01*
X1170Y1D01*
X1169Y1D01*
X1168Y1D01*
X1167Y1D01*
X1166Y1D01*
X1165Y1D01*
X1164Y1D01*
X1163Y1D01*
X1162Y1D01*
X1161Y1D01*
X1160Y1D01*
X1159Y1D01*
X1158Y1D01*
X1157Y1D01*
X1156Y1D01*
X1155Y1D01*
X1154Y1D01*
X1153Y1D01*
X1152Y1D01*
X1151Y1D01*
X1150Y1D01*
X1149Y1D01*
X1148Y1D01*
X1147Y1D01*
X1146Y1D01*
X1145Y1D01*
X1144Y1D01*
X1143Y1D01*
X1142Y1D01*
X1141Y1D01*
X1140Y1D01*
X1139Y1D01*
X1138Y1D01*
X1137Y1D01*
X1136Y1D01*
X1135Y1D01*
X1134Y1D01*
X1133Y1D01*
X1132Y1D01*
X1131Y1D01*
X1130Y1D01*
X1129Y1D01*
X1128Y1D01*
X1127Y1D01*
X1126Y1D01*
X1125Y1D01*
X1124Y1D01*
X1123Y1D01*
X1122Y1D01*
X1121Y1D01*
X1120Y1D01*
X1119Y1D01*
X1118Y1D01*
X1117Y1D01*
X1116Y1D01*
X1115Y1D01*
X1114Y1D01*
X1113Y1D01*
X1112Y1D01*
X1111Y1D01*
X1110Y1D01*
X1109Y1D01*
X1108Y1D01*
X1107Y1D01*
X1106Y1D01*
X1105Y1D01*
X1104Y1D01*
X1103Y1D01*
X1102Y1D01*
X1101Y1D01*
X1100Y1D01*
X1099Y1D01*
X1098Y1D01*
X1097Y1D01*
X1096Y1D01*
X1095Y1D01*
X1094Y1D01*
X1093Y1D01*
X1092Y1D01*
X1091Y1D01*
X1090Y1D01*
X1089Y1D01*
X1088Y1D01*
X1087Y1D01*
X1086Y1D01*
X1085Y1D01*
X1084Y1D01*
X1083Y1D01*
X1082Y1D01*
X1081Y1D01*
X1080Y1D01*
X1079Y1D01*
X1078Y1D01*
X1077Y1D01*
X1076Y1D01*
X1075Y1D01*
X1074Y1D01*
X1073Y1D01*
X1072Y1D01*
X1071Y1D01*
X1070Y1D01*
X1069Y1D01*
X1068Y1D01*
X1067Y1D01*
X1066Y1D01*
X1065Y1D01*
X1064Y1D01*
X1063Y1D01*
X1062Y1D01*
X1061Y1D01*
X1060Y1D01*
X1059Y1D01*
X1058Y1D01*
X1057Y1D01*
X1056Y1D01*
X1055Y1D01*
X1054Y1D01*
X1053Y1D01*
X1052Y1D01*
X1051Y1D01*
X1050Y1D01*
X1049Y1D01*
X1048Y1D01*
X1047Y1D01*
X1046Y1D01*
X1045Y1D01*
X1044Y1D01*
X1043Y1D01*
X1042Y1D01*
X1041Y1D01*
X1040Y1D01*
X1039Y1D01*
X1038Y1D01*
X1037Y1D01*
X1036Y1D01*
X1035Y1D01*
X1034Y1D01*
X1033Y1D01*
X1032Y1D01*
X1031Y1D01*
X1030Y1D01*
X1029Y1D01*
X1028Y1D01*
X1027Y1D01*
X1026Y1D01*
X1025Y1D01*
X1024Y1D01*
X1023Y1D01*
X1022Y1D01*
X1021Y1D01*
X1020Y1D01*
X1019Y1D01*
X1018Y1D01*
X1017Y1D01*
X1016Y1D01*
X1015Y1D01*
X1014Y1D01*
X1013Y1D01*
X1012Y1D01*
X1011Y1D01*
X1010Y1D01*
X1009Y1D01*
X1008Y1D01*
X1007Y1D01*
X1006Y1D01*
X1005Y1D01*
X1004Y1D01*
X1003Y1D01*
X1002Y1D01*
X1001Y1D01*
X1000Y1D01*
X999Y1D01*
X998Y1D01*
X997Y1D01*
X996Y1D01*
X995Y1D01*
X994Y1D01*
X993Y1D01*
X992Y1D01*
X991Y1D01*
X990Y1D01*
X989Y1D01*
X988Y1D01*
X987Y1D01*
X986Y1D01*
X985Y1D01*
X984Y1D01*
X983Y1D01*
X982Y1D01*
X981Y1D01*
X980Y1D01*
X979Y1D01*
X978Y1D01*
X977Y1D01*
X976Y1D01*
X975Y1D01*
X974Y1D01*
X973Y1D01*
X972Y1D01*
X971Y1D01*
X970Y1D01*
X969Y1D01*
X968Y1D01*
X967Y1D01*
X966Y1D01*
X965Y1D01*
X964Y1D01*
X963Y1D01*
X962Y1D01*
X961Y1D01*
X960Y1D01*
X959Y1D01*
X958Y1D01*
X957Y1D01*
X956Y1D01*
X955Y1D01*
X954Y1D01*
X953Y1D01*
X952Y1D01*
X951Y1D01*
X950Y1D01*
X949Y1D01*
X948Y1D01*
X947Y1D01*
X946Y1D01*
X945Y1D01*
X944Y1D01*
X943Y1D01*
X942Y1D01*
X941Y1D01*
X940Y1D01*
X939Y1D01*
X938Y1D01*
X937Y1D01*
X936Y1D01*
X935Y1D01*
X934Y1D01*
X933Y1D01*
X932Y1D01*
X931Y1D01*
X930Y1D01*
X929Y1D01*
X928Y1D01*
X927Y1D01*
X926Y1D01*
X925Y1D01*
X924Y1D01*
X923Y1D01*
X922Y1D01*
X921Y1D01*
X920Y1D01*
X919Y1D01*
X918Y1D01*
X917Y1D01*
X916Y1D01*
X915Y1D01*
X914Y1D01*
X913Y1D01*
X912Y1D01*
X911Y1D01*
X910Y1D01*
X909Y1D01*
X908Y1D01*
X907Y1D01*
X906Y1D01*
X905Y1D01*
X904Y1D01*
X903Y1D01*
X902Y1D01*
X901Y1D01*
X900Y1D01*
X899Y1D01*
X898Y1D01*
X897Y1D01*
X896Y1D01*
X895Y1D01*
X894Y1D01*
X893Y1D01*
X892Y1D01*
X891Y1D01*
X890Y1D01*
X889Y1D01*
X888Y1D01*
X887Y1D01*
X886Y1D01*
X885Y1D01*
X884Y1D01*
X883Y1D01*
X882Y1D01*
X881Y1D01*
X880Y1D01*
X879Y1D01*
X878Y1D01*
X877Y1D01*
X876Y1D01*
X875Y1D01*
X874Y1D01*
X873Y1D01*
X872Y1D01*
X871Y1D01*
X870Y1D01*
X869Y1D01*
X868Y1D01*
X867Y1D01*
X866Y1D01*
X865Y1D01*
X864Y1D01*
X863Y1D01*
X862Y1D01*
X861Y1D01*
X860Y1D01*
X859Y1D01*
X858Y1D01*
X857Y1D01*
X856Y1D01*
X855Y1D01*
X854Y1D01*
X853Y1D01*
X852Y1D01*
X851Y1D01*
X850Y1D01*
X849Y1D01*
X848Y1D01*
X847Y1D01*
X846Y1D01*
X845Y1D01*
X844Y1D01*
X843Y1D01*
X842Y1D01*
X841Y1D01*
X840Y1D01*
X839Y1D01*
X838Y1D01*
X837Y1D01*
X836Y1D01*
X835Y1D01*
X834Y1D01*
X833Y1D01*
X832Y1D01*
X831Y1D01*
X830Y1D01*
X829Y1D01*
X828Y1D01*
X827Y1D01*
X826Y1D01*
X825Y1D01*
X824Y1D01*
X823Y1D01*
X822Y1D01*
X821Y1D01*
X820Y1D01*
X819Y1D01*
X818Y1D01*
X817Y1D01*
X816Y1D01*
X815Y1D01*
X814Y1D01*
X813Y1D01*
X812Y1D01*
X811Y1D01*
X810Y1D01*
X809Y1D01*
X808Y1D01*
X807Y1D01*
X806Y1D01*
X805Y1D01*
X804Y1D01*
X803Y1D01*
X802Y1D01*
X801Y1D01*
X800Y1D01*
X799Y1D01*
X798Y1D01*
X797Y1D01*
X796Y1D01*
X795Y1D01*
X794Y1D01*
X793Y1D01*
X792Y1D01*
X791Y1D01*
X790Y1D01*
X789Y1D01*
X788Y1D01*
X787Y1D01*
X786Y1D01*
X785Y1D01*
X784Y1D01*
X783Y1D01*
X782Y1D01*
X781Y1D01*
X780Y1D01*
X779Y1D01*
X778Y1D01*
X777Y1D01*
X776Y1D01*
X775Y1D01*
X774Y1D01*
X773Y1D01*
X772Y1D01*
X771Y1D01*
X770Y1D01*
X769Y1D01*
X768Y1D01*
X767Y1D01*
X766Y1D01*
X765Y1D01*
X764Y1D01*
X763Y1D01*
X762Y1D01*
X761Y1D01*
X760Y1D01*
X759Y1D01*
X758Y1D01*
X757Y1D01*
X756Y1D01*
X755Y1D01*
X754Y1D01*
X753Y1D01*
X752Y1D01*
X751Y1D01*
X750Y1D01*
X749Y1D01*
X748Y1D01*
X747Y1D01*
X746Y1D01*
X745Y1D01*
X744Y1D01*
X743Y1D01*
X742Y1D01*
X741Y1D01*
X740Y1D01*
X739Y1D01*
X738Y1D01*
X737Y1D01*
X736Y1D01*
X735Y1D01*
X734Y1D01*
X733Y1D01*
X732Y1D01*
X731Y1D01*
X730Y1D01*
X729Y1D01*
X728Y1D01*
X727Y1D01*
X726Y1D01*
X725Y1D01*
X724Y1D01*
X723Y1D01*
X722Y1D01*
X721Y1D01*
X720Y1D01*
X719Y1D01*
X718Y1D01*
X717Y1D01*
X716Y1D01*
X715Y1D01*
X714Y1D01*
X713Y1D01*
X712Y1D01*
X711Y1D01*
X710Y1D01*
X709Y1D01*
X708Y1D01*
X707Y1D01*
X706Y1D01*
X705Y1D01*
X704Y1D01*
X703Y1D01*
X702Y1D01*
X701Y1D01*
X700Y1D01*
X699Y1D01*
X698Y1D01*
X697Y1D01*
X696Y1D01*
X695Y1D01*
X694Y1D01*
X693Y1D01*
X692Y1D01*
X691Y1D01*
X690Y1D01*
X689Y1D01*
X688Y1D01*
X687Y1D01*
X686Y1D01*
X685Y1D01*
X684Y1D01*
X683Y1D01*
X682Y1D01*
X681Y1D01*
X680Y1D01*
X679Y1D01*
X678Y1D01*
X677Y1D01*
X676Y1D01*
X675Y1D01*
X674Y1D01*
X673Y1D01*
X672Y1D01*
X671Y1D01*
X670Y1D01*
X669Y1D01*
X668Y1D01*
X667Y1D01*
X666Y1D01*
X665Y1D01*
X664Y1D01*
X663Y1D01*
X662Y1D01*
X661Y1D01*
X660Y1D01*
X659Y1D01*
X658Y1D01*
X657Y1D01*
X656Y1D01*
X655Y1D01*
X654Y1D01*
X653Y1D01*
X652Y1D01*
X651Y1D01*
X650Y1D01*
X649Y1D01*
X648Y1D01*
X647Y1D01*
X646Y1D01*
X645Y1D01*
X644Y1D01*
X643Y1D01*
X642Y1D01*
X641Y1D01*
X640Y1D01*
X639Y1D01*
X638Y1D01*
X637Y1D01*
X636Y1D01*
X635Y1D01*
X634Y1D01*
X633Y1D01*
X632Y1D01*
X631Y1D01*
X630Y1D01*
X629Y1D01*
X628Y1D01*
X627Y1D01*
X626Y1D01*
X625Y1D01*
X624Y1D01*
X623Y1D01*
X622Y1D01*
X621Y1D01*
X620Y1D01*
X619Y1D01*
X618Y1D01*
X617Y1D01*
X616Y1D01*
X615Y1D01*
X614Y1D01*
X613Y1D01*
X612Y1D01*
X611Y1D01*
X610Y1D01*
X609Y1D01*
X608Y1D01*
X607Y1D01*
X606Y1D01*
X605Y1D01*
X604Y1D01*
X603Y1D01*
X602Y1D01*
X601Y1D01*
X600Y1D01*
X599Y1D01*
X598Y1D01*
X597Y1D01*
X596Y1D01*
X595Y1D01*
X594Y1D01*
X593Y1D01*
X592Y1D01*
X591Y1D01*
X590Y1D01*
X589Y1D01*
X588Y1D01*
X587Y1D01*
X586Y1D01*
X585Y1D01*
X584Y1D01*
X583Y1D01*
X582Y1D01*
X581Y1D01*
X580Y1D01*
X579Y1D01*
X578Y1D01*
X577Y1D01*
X576Y1D01*
X575Y1D01*
X574Y1D01*
X573Y1D01*
X572Y1D01*
X571Y1D01*
X570Y1D01*
X569Y1D01*
X568Y1D01*
X567Y1D01*
X566Y1D01*
X565Y1D01*
X564Y1D01*
X563Y1D01*
X562Y1D01*
X561Y1D01*
X560Y1D01*
X559Y1D01*
X558Y1D01*
X557Y1D01*
X556Y1D01*
X555Y1D01*
X554Y1D01*
X553Y1D01*
X552Y1D01*
X551Y1D01*
X550Y1D01*
X549Y1D01*
X548Y1D01*
X547Y1D01*
X546Y1D01*
X545Y1D01*
X544Y1D01*
X543Y1D01*
X542Y1D01*
X541Y1D01*
X540Y1D01*
X539Y1D01*
X538Y1D01*
X537Y1D01*
X536Y1D01*
X535Y1D01*
X534Y1D01*
X533Y1D01*
X532Y1D01*
X531Y1D01*
X530Y1D01*
X529Y1D01*
X528Y1D01*
X527Y1D01*
X526Y1D01*
X525Y1D01*
X524Y1D01*
X523Y1D01*
X522Y1D01*
X521Y1D01*
X520Y1D01*
X519Y1D01*
X518Y1D01*
X517Y1D01*
X516Y1D01*
X515Y1D01*
X514Y1D01*
X513Y1D01*
X512Y1D01*
X511Y1D01*
X510Y1D01*
X509Y1D01*
X508Y1D01*
X507Y1D01*
X506Y1D01*
X505Y1D01*
X504Y1D01*
X503Y1D01*
X502Y1D01*
X501Y1D01*
X500Y1D01*
X499Y1D01*
X498Y1D01*
X497Y1D01*
X496Y1D01*
X495Y1D01*
X494Y1D01*
X493Y1D01*
X492Y1D01*
X491Y1D01*
X490Y1D01*
X489Y1D01*
X488Y1D01*
X487Y1D01*
X486Y1D01*
X485Y1D01*
X484Y1D01*
X483Y1D01*
X482Y1D01*
X481Y1D01*
X480Y1D01*
X479Y1D01*
X478Y1D01*
X477Y1D01*
X476Y1D01*
X475Y1D01*
X474Y1D01*
X473Y1D01*
X472Y1D01*
X471Y1D01*
X470Y1D01*
X469Y1D01*
X468Y1D01*
X467Y1D01*
X466Y1D01*
X465Y1D01*
X464Y1D01*
X463Y1D01*
X462Y1D01*
X461Y1D01*
X460Y1D01*
X459Y1D01*
X458Y1D01*
X457Y1D01*
X456Y1D01*
X455Y1D01*
X454Y1D01*
X453Y1D01*
X452Y1D01*
X451Y1D01*
X450Y1D01*
X449Y1D01*
X448Y1D01*
X447Y1D01*
X446Y1D01*
X445Y1D01*
X444Y1D01*
X443Y1D01*
X442Y1D01*
X441Y1D01*
X440Y1D01*
X439Y1D01*
X438Y1D01*
X437Y1D01*
X436Y1D01*
X435Y1D01*
X434Y1D01*
X433Y1D01*
X432Y1D01*
X431Y1D01*
X430Y1D01*
X429Y1D01*
X428Y1D01*
X427Y1D01*
X426Y1D01*
X425Y1D01*
X424Y1D01*
X423Y1D01*
X422Y1D01*
X421Y1D01*
X420Y1D01*
X419Y1D01*
X418Y1D01*
X417Y1D01*
X416Y1D01*
X415Y1D01*
X414Y1D01*
X413Y1D01*
X412Y1D01*
X411Y1D01*
X410Y1D01*
X409Y1D01*
X408Y1D01*
X407Y1D01*
X406Y1D01*
X405Y1D01*
X404Y1D01*
X403Y1D01*
X402Y1D01*
X401Y1D01*
X400Y1D01*
X399Y1D01*
X398Y1D01*
X397Y1D01*
X396Y1D01*
X395Y1D01*
X394Y1D01*
X393Y1D01*
X392Y1D01*
X391Y1D01*
X390Y1D01*
X389Y1D01*
X388Y1D01*
X387Y1D01*
X386Y1D01*
X385Y1D01*
X384Y1D01*
X383Y1D01*
X382Y1D01*
X381Y1D01*
X380Y1D01*
X379Y1D01*
X378Y1D01*
X377Y1D01*
X376Y1D01*
X375Y1D01*
X374Y2D01*
X373Y2D01*
X372Y2D01*
X371Y2D01*
X370Y2D01*
X369Y2D01*
X368Y2D01*
X367Y2D01*
X366Y2D01*
X365Y2D01*
X364Y2D01*
X363Y2D01*
X362Y2D01*
X361Y2D01*
X360Y2D01*
X359Y3D01*
X358Y3D01*
X357Y3D01*
X356Y3D01*
X355Y3D01*
X354Y3D01*
X353Y3D01*
X352Y3D01*
X351Y3D01*
X350Y3D01*
X349Y4D01*
X348Y4D01*
X347Y4D01*
X346Y4D01*
X345Y4D01*
X344Y4D01*
X343Y4D01*
X342Y4D01*
X341Y5D01*
X340Y5D01*
X339Y5D01*
X338Y5D01*
X337Y5D01*
X336Y5D01*
X335Y5D01*
X334Y6D01*
X333Y6D01*
X332Y6D01*
X331Y6D01*
X330Y6D01*
X329Y6D01*
X328Y6D01*
X327Y7D01*
X326Y7D01*
X325Y7D01*
X324Y7D01*
X323Y7D01*
X322Y8D01*
X321Y8D01*
X320Y8D01*
X319Y8D01*
X318Y8D01*
X317Y8D01*
X316Y9D01*
X315Y9D01*
X314Y9D01*
X313Y9D01*
X312Y9D01*
X311Y10D01*
X310Y10D01*
X309Y10D01*
X308Y10D01*
X307Y11D01*
X306Y11D01*
X305Y11D01*
X304Y11D01*
X303Y11D01*
X302Y12D01*
X301Y12D01*
X300Y12D01*
X299Y12D01*
X298Y13D01*
X297Y13D01*
X296Y13D01*
X295Y13D01*
X294Y14D01*
X293Y14D01*
X292Y14D01*
X291Y14D01*
X290Y15D01*
X289Y15D01*
X288Y15D01*
X287Y15D01*
X286Y16D01*
X285Y16D01*
X284Y16D01*
X283Y17D01*
X282Y17D01*
X281Y17D01*
X280Y17D01*
X279Y18D01*
X278Y18D01*
X277Y18D01*
X276Y19D01*
X275Y19D01*
X274Y19D01*
X273Y20D01*
X272Y20D01*
X271Y20D01*
X270Y21D01*
X269Y21D01*
X268Y21D01*
X267Y22D01*
X266Y22D01*
X265Y22D01*
X264Y23D01*
X263Y23D01*
X262Y23D01*
X261Y24D01*
X260Y24D01*
X259Y24D01*
X258Y25D01*
X257Y25D01*
X256Y25D01*
X255Y26D01*
X254Y26D01*
X253Y27D01*
X252Y27D01*
X251Y27D01*
X250Y28D01*
X249Y28D01*
X248Y28D01*
X247Y29D01*
X246Y29D01*
X245Y30D01*
X244Y30D01*
X243Y30D01*
X242Y31D01*
X241Y31D01*
X240Y32D01*
X239Y32D01*
X238Y32D01*
X237Y33D01*
X236Y33D01*
X235Y34D01*
X234Y34D01*
X233Y35D01*
X232Y35D01*
X231Y36D01*
X230Y36D01*
X229Y36D01*
X228Y37D01*
X227Y37D01*
X226Y38D01*
X225Y38D01*
X224Y39D01*
X223Y39D01*
X222Y40D01*
X221Y40D01*
X220Y41D01*
X219Y41D01*
X218Y42D01*
X217Y42D01*
X216Y43D01*
X215Y43D01*
X214Y44D01*
X213Y44D01*
X212Y44D01*
X211Y45D01*
X210Y45D01*
X209Y46D01*
X208Y46D01*
X207Y47D01*
X206Y47D01*
X205Y48D01*
X204Y49D01*
X203Y49D01*
X202Y50D01*
X201Y50D01*
X200Y51D01*
X199Y51D01*
X198Y52D01*
X197Y53D01*
X196Y53D01*
X195Y54D01*
X194Y54D01*
X193Y55D01*
X192Y55D01*
X191Y56D01*
X190Y56D01*
X189Y57D01*
X188Y58D01*
X187Y58D01*
X186Y59D01*
X185Y60D01*
X184Y60D01*
X183Y61D01*
X182Y61D01*
X181Y62D01*
X180Y63D01*
X179Y63D01*
X178Y64D01*
X177Y64D01*
X176Y65D01*
X175Y66D01*
X174Y66D01*
X173Y67D01*
X172Y68D01*
X171Y68D01*
X170Y69D01*
X169Y70D01*
X168Y70D01*
X167Y71D01*
X166Y72D01*
X165Y73D01*
X164Y73D01*
X163Y74D01*
X162Y75D01*
X161Y75D01*
X160Y76D01*
X159Y77D01*
X158Y77D01*
X157Y78D01*
X156Y79D01*
X155Y80D01*
X154Y80D01*
X153Y81D01*
X152Y82D01*
X151Y83D01*
X150Y83D01*
X149Y84D01*
X148Y85D01*
X147Y86D01*
X146Y87D01*
X145Y87D01*
X144Y88D01*
X143Y89D01*
X142Y90D01*
X141Y90D01*
X140Y91D01*
X139Y92D01*
X138Y93D01*
X137Y94D01*
X136Y95D01*
X135Y96D01*
X134Y96D01*
X133Y97D01*
X132Y98D01*
X131Y99D01*
X130Y100D01*
X129Y101D01*
X128Y101D01*
X127Y102D01*
X126Y103D01*
X125Y104D01*
X124Y105D01*
X123Y106D01*
X122Y107D01*
X121Y108D01*
X120Y109D01*
X119Y110D01*
X118Y111D01*
X117Y112D01*
X116Y113D01*
X115Y114D01*
X114Y115D01*
X113Y116D01*
X112Y117D01*
X111Y118D01*
X110Y119D01*
X109Y120D01*
X108Y121D01*
X107Y122D01*
X106Y123D01*
X105Y124D01*
X104Y125D01*
X103Y126D01*
X102Y127D01*
X101Y128D01*
X100Y129D01*
X99Y130D01*
X98Y131D01*
X97Y132D01*
X97Y133D01*
X96Y134D01*
X95Y135D01*
X94Y136D01*
X93Y137D01*
X92Y138D01*
X91Y139D01*
X90Y140D01*
X89Y141D01*
X89Y142D01*
X88Y143D01*
X87Y144D01*
X86Y145D01*
X85Y146D01*
X85Y147D01*
X84Y148D01*
X83Y149D01*
X82Y150D01*
X81Y151D01*
X81Y152D01*
X80Y153D01*
X79Y154D01*
X78Y155D01*
X77Y156D01*
X77Y157D01*
X76Y158D01*
X75Y159D01*
X75Y160D01*
X74Y161D01*
X73Y162D01*
X72Y163D01*
X72Y164D01*
X71Y165D01*
X70Y166D01*
X69Y167D01*
X69Y168D01*
X68Y169D01*
X67Y170D01*
X67Y171D01*
X66Y172D01*
X65Y173D01*
X65Y174D01*
X64Y175D01*
X63Y176D01*
X63Y177D01*
X62Y178D01*
X61Y179D01*
X61Y180D01*
X60Y181D01*
X59Y182D01*
X59Y183D01*
X58Y184D01*
X57Y185D01*
X57Y186D01*
X56Y187D01*
X56Y188D01*
X55Y189D01*
X54Y190D01*
X54Y191D01*
X53Y192D01*
X53Y193D01*
X52Y194D01*
X51Y195D01*
X51Y196D01*
X50Y197D01*
X50Y198D01*
X49Y199D01*
X48Y200D01*
X48Y201D01*
X47Y202D01*
X47Y203D01*
X46Y204D01*
X46Y205D01*
X45Y206D01*
X45Y207D01*
X44Y208D01*
X44Y209D01*
X43Y210D01*
X43Y211D01*
X42Y212D01*
X42Y213D01*
X41Y214D01*
X40Y215D01*
X40Y216D01*
X39Y217D01*
X39Y218D01*
X38Y219D01*
X38Y221D01*
X37Y222D01*
X37Y223D01*
X36Y224D01*
X36Y225D01*
X35Y226D01*
X35Y227D01*
X34Y228D01*
X34Y229D01*
X33Y230D01*
X33Y231D01*
X32Y232D01*
X32Y233D01*
X31Y234D01*
X31Y236D01*
X30Y237D01*
X30Y238D01*
X29Y239D01*
X29Y241D01*
X28Y242D01*
X28Y243D01*
X27Y244D01*
X27Y246D01*
X26Y247D01*
X26Y248D01*
X25Y249D01*
X25Y251D01*
X24Y252D01*
X24Y253D01*
X23Y254D01*
X23Y256D01*
X22Y257D01*
X22Y259D01*
X21Y260D01*
X21Y262D01*
X20Y263D01*
X20Y265D01*
X19Y266D01*
X19Y268D01*
X18Y269D01*
X18Y271D01*
X17Y272D01*
X17Y274D01*
X16Y275D01*
X16Y277D01*
X15Y278D01*
X15Y280D01*
X14Y281D01*
X14Y284D01*
X13Y285D01*
X13Y288D01*
X12Y289D01*
X12Y292D01*
X11Y293D01*
X11Y296D01*
X10Y297D01*
X10Y300D01*
X9Y301D01*
X9Y304D01*
X8Y305D01*
X8Y309D01*
X7Y310D01*
X7Y314D01*
X6Y315D01*
X6Y320D01*
X5Y321D01*
X5Y326D01*
X4Y327D01*
X4Y333D01*
X3Y334D01*
X3Y340D01*
X2Y341D01*
X2Y350D01*
X1Y351D01*
X1Y364D01*
X0Y365D01*
X0Y3258D01*
X1Y3259D01*
X1Y3272D01*
X2Y3273D01*
X2Y3282D01*
X3Y3283D01*
X3Y3289D01*
X4Y3290D01*
X4Y3296D01*
X5Y3297D01*
X5Y3302D01*
X6Y3303D01*
X6Y3308D01*
X7Y3309D01*
X7Y3313D01*
X8Y3314D01*
X8Y3318D01*
X9Y3319D01*
X9Y3322D01*
X10Y3323D01*
X10Y3326D01*
X11Y3327D01*
X11Y3330D01*
X12Y3331D01*
X12Y3334D01*
X13Y3335D01*
X13Y3338D01*
X14Y3339D01*
X14Y3342D01*
X15Y3343D01*
X15Y3345D01*
X16Y3346D01*
X16Y3348D01*
X17Y3349D01*
X17Y3351D01*
X18Y3352D01*
X18Y3354D01*
X19Y3355D01*
X19Y3357D01*
X20Y3358D01*
X20Y3360D01*
X21Y3361D01*
X21Y3363D01*
X22Y3364D01*
X22Y3366D01*
X23Y3367D01*
X23Y3369D01*
X24Y3370D01*
X24Y3371D01*
X25Y3372D01*
X25Y3374D01*
X26Y3375D01*
X26Y3376D01*
X27Y3377D01*
X27Y3379D01*
X28Y3380D01*
X28Y3381D01*
X29Y3382D01*
X29Y3384D01*
X30Y3385D01*
X30Y3386D01*
X31Y3387D01*
X31Y3389D01*
X32Y3390D01*
X32Y3391D01*
X33Y3392D01*
X33Y3393D01*
X34Y3394D01*
X34Y3395D01*
X35Y3396D01*
X35Y3397D01*
X36Y3398D01*
X36Y3399D01*
X37Y3400D01*
X37Y3401D01*
X38Y3402D01*
X38Y3404D01*
X39Y3405D01*
X39Y3406D01*
X40Y3407D01*
X40Y3408D01*
X41Y3409D01*
X42Y3410D01*
X42Y3411D01*
X43Y3412D01*
X43Y3413D01*
X44Y3414D01*
X44Y3415D01*
X45Y3416D01*
X45Y3417D01*
X46Y3418D01*
X46Y3419D01*
X47Y3420D01*
X47Y3421D01*
X48Y3422D01*
X48Y3423D01*
X49Y3424D01*
X50Y3425D01*
X50Y3426D01*
X51Y3427D01*
X51Y3428D01*
X52Y3429D01*
X53Y3430D01*
X53Y3431D01*
X54Y3432D01*
X54Y3433D01*
X55Y3434D01*
X56Y3435D01*
X56Y3436D01*
X57Y3437D01*
X57Y3438D01*
X58Y3439D01*
X59Y3440D01*
X59Y3441D01*
X60Y3442D01*
X61Y3443D01*
X61Y3444D01*
X62Y3445D01*
X63Y3446D01*
X63Y3447D01*
X64Y3448D01*
X65Y3449D01*
X65Y3450D01*
X66Y3451D01*
X67Y3452D01*
X67Y3453D01*
X68Y3454D01*
X69Y3455D01*
X69Y3456D01*
X70Y3457D01*
X71Y3458D01*
X72Y3459D01*
X72Y3460D01*
X73Y3461D01*
X74Y3462D01*
X75Y3463D01*
X75Y3464D01*
X76Y3465D01*
X77Y3466D01*
X77Y3467D01*
X78Y3468D01*
X79Y3469D01*
X80Y3470D01*
X81Y3471D01*
X81Y3472D01*
X82Y3473D01*
X83Y3474D01*
X84Y3475D01*
X85Y3476D01*
X85Y3477D01*
X86Y3478D01*
X87Y3479D01*
X88Y3480D01*
X89Y3481D01*
X89Y3482D01*
X90Y3483D01*
X91Y3484D01*
X92Y3485D01*
X93Y3486D01*
X94Y3487D01*
X95Y3488D01*
X96Y3489D01*
X97Y3490D01*
X97Y3491D01*
X98Y3492D01*
X99Y3493D01*
X100Y3494D01*
X101Y3495D01*
X102Y3496D01*
X103Y3497D01*
X104Y3498D01*
X105Y3499D01*
X106Y3500D01*
X107Y3501D01*
X108Y3502D01*
X109Y3503D01*
X110Y3504D01*
X111Y3505D01*
X112Y3506D01*
X113Y3507D01*
X114Y3508D01*
X115Y3509D01*
X116Y3510D01*
X117Y3511D01*
X118Y3512D01*
X119Y3513D01*
X120Y3514D01*
X121Y3515D01*
X122Y3516D01*
X123Y3517D01*
X124Y3518D01*
X125Y3519D01*
X126Y3520D01*
X127Y3521D01*
X128Y3522D01*
X129Y3522D01*
X130Y3523D01*
X131Y3524D01*
X132Y3525D01*
X133Y3526D01*
X134Y3527D01*
X135Y3527D01*
X136Y3528D01*
X137Y3529D01*
X138Y3530D01*
X139Y3531D01*
X140Y3532D01*
X141Y3533D01*
X142Y3533D01*
X143Y3534D01*
X144Y3535D01*
X145Y3536D01*
X146Y3536D01*
X147Y3537D01*
X148Y3538D01*
X149Y3539D01*
X150Y3540D01*
X151Y3540D01*
X152Y3541D01*
X153Y3542D01*
X154Y3543D01*
X155Y3543D01*
X156Y3544D01*
X157Y3545D01*
X158Y3546D01*
X159Y3546D01*
X160Y3547D01*
X161Y3548D01*
X162Y3548D01*
X163Y3549D01*
X164Y3550D01*
X165Y3550D01*
X166Y3551D01*
X167Y3552D01*
X168Y3553D01*
X169Y3553D01*
X170Y3554D01*
X171Y3555D01*
X172Y3555D01*
X173Y3556D01*
X174Y3557D01*
X175Y3557D01*
X176Y3558D01*
X177Y3559D01*
X178Y3559D01*
X179Y3560D01*
X180Y3560D01*
X181Y3561D01*
X182Y3562D01*
X183Y3562D01*
X184Y3563D01*
X185Y3563D01*
X186Y3564D01*
X187Y3565D01*
X188Y3565D01*
X189Y3566D01*
X190Y3567D01*
X191Y3567D01*
X192Y3568D01*
X193Y3568D01*
X194Y3569D01*
X195Y3569D01*
X196Y3570D01*
X197Y3570D01*
X198Y3571D01*
X199Y3572D01*
X200Y3572D01*
X201Y3573D01*
X202Y3573D01*
X203Y3574D01*
X204Y3574D01*
X205Y3575D01*
X206Y3576D01*
X207Y3576D01*
X208Y3577D01*
X209Y3577D01*
X210Y3578D01*
X211Y3578D01*
X212Y3579D01*
X213Y3579D01*
X214Y3579D01*
X215Y3580D01*
X216Y3580D01*
X217Y3581D01*
X218Y3581D01*
X219Y3582D01*
X220Y3582D01*
X221Y3583D01*
X222Y3583D01*
X223Y3584D01*
X224Y3584D01*
X225Y3585D01*
X226Y3585D01*
X227Y3586D01*
X228Y3586D01*
X229Y3587D01*
X230Y3587D01*
X231Y3587D01*
X232Y3588D01*
X233Y3588D01*
X234Y3589D01*
X235Y3589D01*
X236Y3590D01*
X237Y3590D01*
X238Y3591D01*
X239Y3591D01*
X240Y3591D01*
X241Y3592D01*
X242Y3592D01*
X243Y3593D01*
X244Y3593D01*
X245Y3593D01*
X246Y3594D01*
X247Y3594D01*
X248Y3595D01*
X249Y3595D01*
X250Y3595D01*
X251Y3596D01*
X252Y3596D01*
X253Y3596D01*
X254Y3597D01*
X255Y3597D01*
X256Y3598D01*
X257Y3598D01*
X258Y3598D01*
X259Y3599D01*
X260Y3599D01*
X261Y3599D01*
X262Y3600D01*
X263Y3600D01*
X264Y3600D01*
X265Y3601D01*
X266Y3601D01*
X267Y3601D01*
X268Y3602D01*
X269Y3602D01*
X270Y3602D01*
X271Y3603D01*
X272Y3603D01*
X273Y3603D01*
X274Y3604D01*
X275Y3604D01*
X276Y3604D01*
X277Y3605D01*
X278Y3605D01*
X279Y3605D01*
X280Y3606D01*
X281Y3606D01*
X282Y3606D01*
X283Y3606D01*
X284Y3607D01*
X285Y3607D01*
X286Y3607D01*
X287Y3608D01*
X288Y3608D01*
X289Y3608D01*
X290Y3608D01*
X291Y3609D01*
X292Y3609D01*
X293Y3609D01*
X294Y3609D01*
X295Y3610D01*
X296Y3610D01*
X297Y3610D01*
X298Y3610D01*
X299Y3611D01*
X300Y3611D01*
X301Y3611D01*
X302Y3611D01*
X303Y3612D01*
X304Y3612D01*
X305Y3612D01*
X306Y3612D01*
X307Y3612D01*
X308Y3613D01*
X309Y3613D01*
X310Y3613D01*
X311Y3613D01*
X312Y3614D01*
X313Y3614D01*
X314Y3614D01*
X315Y3614D01*
X316Y3614D01*
X317Y3615D01*
X318Y3615D01*
X319Y3615D01*
X320Y3615D01*
X321Y3615D01*
X322Y3615D01*
X323Y3616D01*
X324Y3616D01*
X325Y3616D01*
X326Y3616D01*
X327Y3616D01*
X328Y3617D01*
X329Y3617D01*
X330Y3617D01*
X331Y3617D01*
X332Y3617D01*
X333Y3617D01*
X334Y3617D01*
X335Y3618D01*
X336Y3618D01*
X337Y3618D01*
X338Y3618D01*
X339Y3618D01*
X340Y3618D01*
X341Y3618D01*
X342Y3619D01*
X343Y3619D01*
X344Y3619D01*
X345Y3619D01*
X346Y3619D01*
X347Y3619D01*
X348Y3619D01*
X349Y3619D01*
X350Y3620D01*
X351Y3620D01*
X352Y3620D01*
X353Y3620D01*
X354Y3620D01*
X355Y3620D01*
X356Y3620D01*
X357Y3620D01*
X358Y3620D01*
X359Y3620D01*
X360Y3621D01*
X361Y3621D01*
X362Y3621D01*
X363Y3621D01*
X364Y3621D01*
X365Y3621D01*
X366Y3621D01*
X367Y3621D01*
X368Y3621D01*
X369Y3621D01*
X370Y3621D01*
X371Y3621D01*
X372Y3621D01*
X373Y3621D01*
X374Y3621D01*
X375Y3622D01*
D02*
G04 End of contour*
M02*