G04 MADE WITH FRITZING*
G04 WWW.FRITZING.ORG*
G04 DOUBLE SIDED*
G04 HOLES PLATED*
G04 CONTOUR ON CENTER OF CONTOUR VECTOR*
%ASAXBY*%
%FSLAX23Y23*%
%MOIN*%
%OFA0B0*%
%SFA1.0B1.0*%
%ADD10C,0.049370*%
%ADD11C,0.088000*%
%ADD12C,0.089370*%
%ADD13C,0.084000*%
%ADD14C,0.080866*%
%ADD15C,0.080000*%
%ADD16C,0.112677*%
%ADD17C,0.092000*%
%ADD18C,0.103000*%
%ADD19C,0.136000*%
%ADD20C,0.085000*%
%ADD21C,0.075000*%
%ADD22C,0.084667*%
%ADD23C,0.084695*%
%ADD24C,0.134033*%
%ADD25C,0.072992*%
%ADD26C,0.100020*%
%ADD27C,0.070000*%
%ADD28C,0.093307*%
%ADD29C,0.128110*%
%ADD30C,0.068000*%
%ADD31R,0.092000X0.092000*%
%ADD32R,0.072992X0.072992*%
%ADD33R,0.088000X0.153667*%
%ADD34R,0.088000X0.154000*%
%ADD35R,0.154000X0.088000*%
%LNMASK0*%
G90*
G70*
G54D10*
X2848Y2366D03*
G54D11*
X491Y3009D03*
X391Y3009D03*
X291Y3009D03*
G54D12*
X1357Y3524D03*
X1357Y3424D03*
X1357Y3324D03*
X1357Y3224D03*
X1357Y3124D03*
X1357Y3024D03*
G54D10*
X1174Y2762D03*
G54D13*
X106Y2584D03*
X106Y2477D03*
X106Y2370D03*
G54D10*
X946Y1804D03*
G54D14*
X2727Y2301D03*
X2629Y2301D03*
X2530Y2301D03*
G54D15*
X2727Y1730D03*
X2531Y1730D03*
G54D16*
X2847Y2005D03*
X2410Y2005D03*
G54D17*
X81Y2938D03*
X81Y3236D03*
G54D18*
X3058Y2713D03*
G54D19*
X2716Y2712D03*
G54D18*
X189Y2712D03*
G54D19*
X526Y2712D03*
G54D18*
X3058Y2713D03*
G54D19*
X2716Y2712D03*
G54D18*
X189Y2712D03*
G54D19*
X526Y2712D03*
G54D20*
X1863Y2900D03*
X1763Y2900D03*
X1663Y2900D03*
G54D21*
X1077Y2322D03*
X1077Y2519D03*
X3205Y2490D03*
X3008Y2490D03*
G54D22*
X2274Y2484D03*
X2374Y2484D03*
G54D23*
X2474Y2484D03*
G54D24*
X2180Y2779D03*
X2568Y2779D03*
G54D20*
X2869Y327D03*
X2869Y583D03*
X3046Y327D03*
X3046Y583D03*
X2480Y327D03*
X2480Y583D03*
X2657Y327D03*
X2657Y583D03*
X2091Y327D03*
X2091Y583D03*
X2268Y327D03*
X2268Y583D03*
X1691Y327D03*
X1691Y583D03*
X1868Y327D03*
X1868Y583D03*
X1313Y327D03*
X1313Y583D03*
X1490Y327D03*
X1490Y583D03*
G54D25*
X2909Y727D03*
X3008Y727D03*
X2509Y727D03*
X2608Y727D03*
X2131Y727D03*
X2230Y727D03*
X1720Y727D03*
X1819Y727D03*
G54D20*
X2430Y2983D03*
X2130Y2983D03*
G54D26*
X2491Y3199D03*
X2392Y3254D03*
X2126Y3085D03*
X2106Y3380D03*
X2298Y3508D03*
X1919Y3199D03*
X1820Y3254D03*
X1554Y3085D03*
X1534Y3380D03*
X1726Y3508D03*
X2849Y2895D03*
X2904Y2994D03*
X2735Y3260D03*
X3030Y3280D03*
X3158Y3088D03*
G54D20*
X913Y327D03*
X913Y583D03*
X1090Y327D03*
X1090Y583D03*
G54D25*
X1354Y727D03*
X1452Y727D03*
X965Y727D03*
X1063Y727D03*
X565Y727D03*
X663Y727D03*
X176Y727D03*
X274Y727D03*
G54D27*
X1024Y3499D03*
X925Y3499D03*
X824Y3499D03*
X724Y3499D03*
G54D28*
X74Y1155D03*
X174Y1155D03*
X274Y1155D03*
X374Y1155D03*
X474Y1155D03*
X574Y1155D03*
X674Y1155D03*
X774Y1155D03*
X874Y1155D03*
X974Y1155D03*
X1074Y1155D03*
X1174Y1155D03*
X1274Y1155D03*
X1374Y1155D03*
X1474Y1155D03*
X1574Y1155D03*
X1674Y1155D03*
X1774Y1155D03*
X1874Y1155D03*
X1974Y1155D03*
G54D20*
X2009Y2430D03*
X1709Y2430D03*
X2002Y3344D03*
X2002Y3044D03*
X524Y327D03*
X524Y583D03*
X701Y327D03*
X701Y583D03*
X124Y327D03*
X124Y583D03*
X301Y327D03*
X301Y583D03*
G54D12*
X74Y2171D03*
X174Y2171D03*
X274Y2171D03*
X374Y2171D03*
X474Y2171D03*
X574Y2171D03*
X674Y2171D03*
X774Y2171D03*
X874Y2171D03*
X974Y2171D03*
X1074Y2171D03*
X1174Y2171D03*
X1274Y2171D03*
X1374Y2171D03*
X1474Y2171D03*
X1574Y2171D03*
X1674Y2171D03*
X1774Y2171D03*
X1874Y2171D03*
X1974Y2171D03*
G54D29*
X203Y161D03*
X3065Y166D03*
X194Y3453D03*
G54D20*
X2875Y2794D03*
X2875Y2494D03*
X1304Y2393D03*
X1604Y2393D03*
X1598Y2510D03*
X1298Y2510D03*
X3147Y583D03*
X3147Y283D03*
X2769Y577D03*
X2769Y277D03*
X2369Y577D03*
X2369Y277D03*
X1980Y577D03*
X1980Y277D03*
X1591Y577D03*
X1591Y277D03*
X1202Y577D03*
X1202Y277D03*
G54D29*
X3075Y3446D03*
G54D20*
X802Y577D03*
X802Y277D03*
G54D22*
X2463Y1466D03*
X2363Y1466D03*
G54D23*
X2263Y1466D03*
G54D24*
X2557Y1171D03*
X2169Y1171D03*
G54D22*
X3074Y1466D03*
X2974Y1466D03*
G54D23*
X2874Y1466D03*
G54D24*
X3168Y1171D03*
X2780Y1171D03*
G54D30*
X200Y1755D03*
X200Y1565D03*
G54D15*
X81Y1553D03*
X81Y1768D03*
G54D11*
X74Y1311D03*
X174Y1311D03*
X274Y1311D03*
X374Y1311D03*
X474Y1311D03*
X574Y1311D03*
X674Y1311D03*
X774Y1311D03*
X874Y1311D03*
X974Y1311D03*
X1074Y1311D03*
X1174Y1311D03*
X1274Y1311D03*
X1374Y1311D03*
X1474Y1311D03*
X1574Y1311D03*
X1674Y1311D03*
X1774Y1311D03*
X1874Y1311D03*
X1974Y1311D03*
X1974Y2010D03*
X1874Y2010D03*
X1774Y2010D03*
X1674Y2010D03*
X1574Y2010D03*
X1474Y2010D03*
X1374Y2010D03*
X1274Y2010D03*
X1174Y2010D03*
X1074Y2010D03*
X974Y2010D03*
X874Y2010D03*
X774Y2010D03*
X674Y2010D03*
X574Y2010D03*
X474Y2010D03*
X374Y2010D03*
X274Y2010D03*
X174Y2010D03*
X74Y2010D03*
X1974Y1560D03*
X1974Y1660D03*
X1974Y1760D03*
G54D20*
X391Y583D03*
X391Y283D03*
G54D31*
X81Y2937D03*
G54D32*
X2909Y727D03*
X2509Y727D03*
X2131Y727D03*
X1720Y727D03*
X1354Y727D03*
X965Y727D03*
X565Y727D03*
X176Y727D03*
G54D33*
X75Y1278D03*
G54D34*
X175Y1279D03*
X275Y1279D03*
X375Y1278D03*
X475Y1279D03*
X575Y1279D03*
X675Y1279D03*
X775Y1279D03*
X875Y1279D03*
X975Y1279D03*
X1075Y1279D03*
X1175Y1279D03*
X1275Y1279D03*
X1375Y1279D03*
X1475Y1279D03*
X1575Y1279D03*
X1675Y1279D03*
X1775Y1279D03*
X1875Y1279D03*
X1975Y1279D03*
X1975Y2043D03*
X1875Y2043D03*
X1775Y2043D03*
X1675Y2043D03*
X1575Y2043D03*
X1475Y2043D03*
X1375Y2043D03*
X1275Y2043D03*
X1175Y2043D03*
X1075Y2043D03*
X975Y2043D03*
X875Y2043D03*
X775Y2043D03*
X675Y2043D03*
X575Y2043D03*
X475Y2043D03*
X375Y2043D03*
X275Y2043D03*
X175Y2043D03*
X75Y2043D03*
G54D35*
X1999Y1560D03*
X1999Y1660D03*
X1999Y1760D03*
G04 End of Mask0*
M02*